<?xml version="1.0" encoding="UTF-8" standalone="no"?>
<!-- Created with Inkscape (http://www.inkscape.org/) -->

<svg
   width="243.30821mm"
   height="131.75415mm"
   viewBox="0 0 243.30821 131.75415"
   version="1.1"
   id="svg1687"
   inkscape:version="1.1 (c68e22c387, 2021-05-23)"
   sodipodi:docname="storkwithbaby.svg"
   xmlns:inkscape="http://www.inkscape.org/namespaces/inkscape"
   xmlns:sodipodi="http://sodipodi.sourceforge.net/DTD/sodipodi-0.dtd"
   xmlns="http://www.w3.org/2000/svg"
   xmlns:svg="http://www.w3.org/2000/svg">
  <sodipodi:namedview
     id="namedview1689"
     pagecolor="#ffffff"
     bordercolor="#666666"
     borderopacity="1.0"
     inkscape:pageshadow="2"
     inkscape:pageopacity="0.0"
     inkscape:pagecheckerboard="0"
     inkscape:document-units="mm"
     showgrid="false"
     inkscape:zoom="0.62679641"
     inkscape:cx="-289.56771"
     inkscape:cy="130.02627"
     inkscape:window-width="1920"
     inkscape:window-height="1017"
     inkscape:window-x="-8"
     inkscape:window-y="-8"
     inkscape:window-maximized="1"
     inkscape:current-layer="layer1" />
  <defs
     id="defs1684" />
  <g
     inkscape:label="Layer 1"
     inkscape:groupmode="layer"
     id="layer1"
     transform="translate(-181.37381,-113.9958)">
    <path
       style="fill:#000000;stroke-width:0.264583"
       d="m 218.03257,245.70802 c -0.94433,0.0956 -1.20454,0.0369 -1.20454,-0.2716 0,-0.21641 -0.10914,-0.39348 -0.24254,-0.39348 -0.13339,0 -0.28966,0.14139 -0.34726,0.31419 -0.0674,0.20214 -0.31147,0.10746 -0.68442,-0.2655 -0.52638,-0.52637 -0.55438,-0.69519 -0.30449,-1.83554 0.15136,-0.69072 0.33839,-1.46422 0.41562,-1.71888 0.0772,-0.25466 0.31099,-0.46302 0.51946,-0.46302 0.20847,0 0.37905,0.11062 0.37905,0.24582 0,0.13521 0.68139,0.38729 1.51421,0.56018 0.83282,0.17289 2.35086,0.25969 3.37344,0.19288 1.22405,-0.08 2.26598,-0.32959 3.04985,-0.73065 0.65484,-0.33504 1.5809,-0.90631 2.0579,-1.26948 0.47701,-0.36318 1.19138,-1.11252 1.5875,-1.66521 0.39612,-0.55269 1.23067,-1.72664 1.85456,-2.60879 0.62388,-0.88216 1.08155,-1.60392 1.01702,-1.60392 -0.0645,0 -0.90964,0.82072 -1.87805,1.82381 -1.01813,1.0546 -2.43056,2.18082 -3.34892,2.6703 -1.07544,0.5732 -1.79062,0.79569 -2.21522,0.68912 -0.34486,-0.0866 -0.70218,-0.39416 -0.79403,-0.68356 -0.0918,-0.2894 -0.0928,-0.64631 -0.002,-0.79313 0.0907,-0.14682 0.76101,-0.26695 1.48948,-0.26695 1.2677,0 1.38673,-0.0652 2.77633,-1.52136 0.79851,-0.83674 2.36836,-2.88801 3.48854,-4.55838 1.12018,-1.67037 2.12961,-3.15865 2.24317,-3.30729 0.11357,-0.14865 1.78044,-2.61262 3.70417,-5.47549 1.92373,-2.86288 4.14228,-6.1371 4.9301,-7.27604 0.78783,-1.13895 2.09752,-2.94426 2.91042,-4.01181 0.8129,-1.06754 1.59707,-2.1391 1.74259,-2.38125 0.14552,-0.24214 0.80464,-1.15463 1.46472,-2.02776 0.66008,-0.87312 2.1253,-2.87729 3.25604,-4.4537 1.13074,-1.57642 2.16825,-3.16174 2.30558,-3.52296 0.13734,-0.36121 0.2497,-1.04794 0.2497,-1.52608 0,-0.47813 0.13551,-1.27405 0.30112,-1.76871 0.16562,-0.49466 0.58972,-1.28807 0.94245,-1.76313 0.35273,-0.47507 1.2555,-1.17498 2.00615,-1.55536 0.75066,-0.38039 2.10957,-1.40675 3.01981,-2.2808 0.91023,-0.87406 1.72515,-1.81032 1.81093,-2.08058 0.10581,-0.33336 -0.0836,-0.7043 -0.58881,-1.15343 -0.40963,-0.36411 -1.39962,-0.863 -2.19998,-1.10862 -0.95414,-0.29281 -2.427,-0.45277 -4.27744,-0.46452 -1.55223,-0.01 -2.89448,-0.0902 -2.98279,-0.17851 -0.0883,-0.0883 -0.0809,-0.36805 0.0164,-0.62163 0.0973,-0.25359 0.90378,-0.7949 1.79216,-1.20291 0.88838,-0.40802 2.09149,-0.87176 2.67357,-1.03054 0.58208,-0.15878 1.74677,-0.28936 2.58819,-0.29017 0.84141,-7.9e-4 1.91854,0.16093 2.3936,0.35943 0.47506,0.19849 1.175,0.7308 1.55542,1.1829 0.38042,0.4521 0.82268,1.43287 0.9828,2.1795 0.20201,0.94191 0.20876,1.66339 0.0221,2.35671 -0.14798,0.54957 -0.83392,1.77167 -1.52432,2.71579 -0.69039,0.94412 -1.65923,2.05996 -2.15297,2.47966 -0.49374,0.41969 -1.73116,1.23933 -2.74982,1.82141 -1.80284,1.03019 -1.87748,1.11504 -2.80645,3.19045 -0.52489,1.17266 -1.3617,2.83953 -1.85958,3.70416 -0.49787,0.86464 -1.92554,3.00081 -3.1726,4.74706 -1.24705,1.74625 -2.62564,3.68531 -3.06352,4.30903 -0.43788,0.62372 -1.98678,2.85732 -3.44198,4.96356 -1.45521,2.10625 -2.83279,4.17264 -3.0613,4.592 -0.2285,0.41935 -0.61537,0.96237 -0.8597,1.20671 -0.24434,0.24433 -0.76422,1.00137 -1.15529,1.68231 -0.39107,0.68093 -1.25436,2.05621 -1.91842,3.05617 -0.66406,0.99997 -1.32887,2.012 -1.47737,2.24896 -0.14849,0.23696 -0.60357,0.94811 -1.01128,1.58032 -0.40772,0.63221 -0.6817,1.20908 -0.60886,1.28192 0.0728,0.0729 0.31486,-0.0872 0.53781,-0.35573 0.22295,-0.26849 1.71948,-2.33364 3.32562,-4.58921 1.60615,-2.25557 3.61343,-5.11307 4.46063,-6.35 0.84721,-1.23693 3.06121,-4.50421 4.92002,-7.26062 1.8588,-2.75641 4.21566,-6.1497 5.23745,-7.54063 1.02179,-1.39092 2.5883,-3.28309 3.48112,-4.20481 0.89282,-0.92173 2.09957,-2.00415 2.68165,-2.4054 0.58208,-0.40125 1.77271,-1.11734 2.64583,-1.59132 0.87313,-0.47397 2.30188,-1.29654 3.175,-1.82793 0.87313,-0.53139 2.65906,-1.71462 3.96875,-2.62939 1.30969,-0.91478 2.90151,-2.1054 3.53739,-2.64584 0.63587,-0.54043 1.48731,-1.31002 1.89209,-1.7102 0.40477,-0.40019 0.83837,-0.72761 0.96355,-0.72761 0.12518,0 1.23827,-0.98957 2.47354,-2.19905 1.23526,-1.20947 2.59584,-2.66005 3.02352,-3.2235 0.42767,-0.56345 0.82365,-0.88625 0.87995,-0.71733 0.0563,0.16891 -0.43978,1.01167 -1.10241,1.87281 -0.66263,0.86113 -1.8014,2.08421 -2.53061,2.71795 -0.7292,0.63373 -1.32717,1.23206 -1.32882,1.32962 -0.002,0.0975 1.33646,0.12074 2.97357,0.0515 1.63711,-0.0692 3.81,-0.29162 4.82865,-0.49424 1.01865,-0.20262 2.73941,-0.49852 3.82392,-0.65756 1.08452,-0.15904 3.02067,-0.5909 4.30257,-0.9597 1.2819,-0.36879 3.01395,-0.94888 3.84899,-1.28909 0.83505,-0.34022 2.35171,-1.02092 3.37035,-1.51267 1.01865,-0.49176 2.68552,-1.35776 3.70417,-1.92445 1.01865,-0.56669 2.86411,-1.70584 4.10104,-2.53144 1.23693,-0.8256 2.9038,-2.14711 3.70417,-2.93667 0.80036,-0.78957 1.99955,-2.0862 2.66487,-2.88141 0.66532,-0.79521 1.70288,-2.23989 2.30569,-3.21039 0.60281,-0.9705 1.87502,-3.38857 2.82713,-5.37349 0.95211,-1.98492 2.16379,-4.2865 2.69262,-5.11462 0.52883,-0.82812 1.43849,-1.98192 2.02146,-2.56401 0.58298,-0.58208 2.03943,-2.18942 3.23656,-3.57187 1.19714,-1.38245 4.30498,-4.59898 6.90633,-7.14784 2.60134,-2.54886 6.85834,-6.34034 9.46001,-8.42552 2.60166,-2.08517 5.3401,-4.18073 6.08541,-4.65678 0.74532,-0.47606 2.21839,-1.29978 3.2735,-1.83049 1.05511,-0.53071 2.59118,-1.14016 3.41349,-1.35435 0.82231,-0.21418 1.55587,-0.45019 1.63013,-0.52445 0.0743,-0.0743 -0.0181,-0.59918 -0.20538,-1.16647 -0.18723,-0.5673 -0.25652,-1.16719 -0.15398,-1.3331 0.12366,-0.20009 0.3586,-0.0828 0.69785,0.34853 0.28129,0.35759 1.07547,0.83308 1.76485,1.05663 0.68937,0.22355 1.72966,0.43578 2.31175,0.47163 0.58208,0.0359 2.01083,-0.03 3.175,-0.14641 1.16416,-0.11638 2.53338,-0.25609 3.04271,-0.31047 0.50932,-0.0544 1.9976,-0.22454 3.30729,-0.37813 1.30968,-0.15359 5.17922,-0.60475 8.59896,-1.00258 6.11665,-0.71157 6.21916,-0.7336 6.30731,-1.35559 0.0894,-0.63095 0.0856,-0.63189 -1.85208,-0.45164 -1.06784,0.0993 -3.07269,0.29478 -4.45514,0.43429 -1.38245,0.13951 -5.84977,0.33215 -9.92738,0.42809 -5.64667,0.13286 -7.75285,0.0931 -8.83613,-0.16676 -0.94572,-0.22687 -1.77816,-0.6617 -2.48434,-1.29771 -0.68038,-0.61277 -1.10226,-0.83765 -1.17394,-0.62578 -0.0615,0.1819 -0.22103,0.33073 -0.35443,0.33073 -0.13339,0 -0.24253,-0.23812 -0.24253,-0.52916 0,-0.29105 0.23812,-0.7673 0.52916,-1.05834 0.29105,-0.29104 0.78003,-0.52916 1.08665,-0.52916 0.39824,0 0.51187,0.11883 0.39782,0.41604 -0.0878,0.22882 -0.0451,0.63005 0.0949,0.89161 0.13998,0.26156 0.92325,0.74699 1.74059,1.07873 0.98877,0.40131 2.07646,0.61205 3.25027,0.62974 0.9703,0.0146 2.71668,-0.0634 3.88085,-0.17336 1.16416,-0.10996 5.15276,-0.37699 8.86354,-0.5934 3.71078,-0.2164 9.42578,-0.57598 12.7,-0.79906 3.27422,-0.22309 7.97719,-0.52001 10.45104,-0.65983 2.47385,-0.13982 6.08369,-0.36323 8.02185,-0.49646 1.93817,-0.13323 3.59513,-0.31342 3.68212,-0.40042 0.087,-0.087 0.10092,-0.21545 0.0309,-0.28544 -0.07,-0.07 -1.01257,-0.14938 -2.09462,-0.17642 -1.08204,-0.027 -11.36078,0.0257 -22.84162,0.11716 -20.52418,0.16352 -20.8839,0.17535 -21.44831,0.70558 -0.36048,0.33866 -0.93216,0.53928 -1.53672,0.53928 -0.52947,0 -1.26557,-0.13801 -1.63578,-0.30669 -0.42549,-0.19386 -0.76671,-0.64574 -0.92759,-1.2284 -0.16794,-0.60824 -0.15943,-1.36502 0.025,-2.22512 0.15374,-0.71686 0.23813,-1.34355 0.18754,-1.39263 -0.0506,-0.0491 -1.16355,0.0235 -2.47323,0.16133 -1.30969,0.13781 -2.79797,0.29839 -3.3073,0.35683 -0.50932,0.0584 -1.79009,0.11313 -2.84615,0.12152 l -1.92012,0.0152 -2.18093,2.30383 c -1.19951,1.2671 -3.01436,3.14781 -4.03301,4.17934 -1.01864,1.03154 -2.98317,2.88242 -4.36562,4.11309 -1.38245,1.23066 -3.39542,2.94206 -4.47328,3.80309 -1.07785,0.86104 -3.11905,2.42832 -4.536,3.48285 -1.41695,1.05453 -3.80928,2.74268 -5.31631,3.75146 -1.50702,1.00877 -3.8116,2.41635 -5.12128,3.12795 -1.30969,0.7116 -2.73844,1.50575 -3.175,1.76479 -0.43657,0.25904 -1.21047,0.65623 -1.7198,0.88264 -0.50932,0.22641 -2.05713,0.93142 -3.43958,1.56667 -1.38245,0.63526 -3.46354,1.52895 -4.62465,1.98598 -1.16111,0.45704 -2.76846,1.05338 -3.57188,1.3252 -0.80342,0.27182 -2.23467,0.68675 -3.18055,0.92207 -0.94589,0.23531 -2.37464,0.64571 -3.175,0.912 -0.80037,0.26629 -2.37795,0.68535 -3.50573,0.93125 -1.28768,0.28076 -2.05052,0.57614 -2.05052,0.79399 0,0.19079 0.41474,0.71105 0.92165,1.15612 0.50691,0.44507 1.41019,0.9556 2.0073,1.13449 0.84503,0.25318 1.34526,0.25582 2.25714,0.0119 0.64432,-0.17233 1.28885,-0.31333 1.43229,-0.31333 0.14343,0 0.26078,0.10462 0.26078,0.23249 0,0.12786 -0.32742,0.36115 -0.7276,0.51842 -0.40018,0.15726 -1.16405,0.36167 -1.69748,0.45423 -0.58748,0.10194 -1.52636,0.006 -2.38125,-0.24263 -0.77626,-0.22601 -1.89396,-0.76622 -2.48378,-1.20048 -0.64675,-0.47616 -1.34849,-1.34702 -1.76795,-2.19402 -0.38256,-0.77246 -0.89461,-2.05931 -1.1379,-2.85967 -0.24329,-0.80037 -0.50716,-1.69334 -0.58638,-1.98438 -0.0792,-0.29104 -0.22586,-3.32713 -0.32586,-6.74687 -0.1,-3.41974 -0.32908,-7.17021 -0.50906,-8.33438 -0.17998,-1.16416 -0.50942,-2.77151 -0.73208,-3.57187 -0.22266,-0.80037 -0.58546,-1.87193 -0.80622,-2.38125 -0.22076,-0.50933 -0.69346,-1.55088 -1.05044,-2.31457 -0.45401,-0.97125 -1.28416,-1.96514 -2.76245,-3.30729 -1.16237,-1.05532 -2.49319,-2.12224 -2.95737,-2.37092 -0.46418,-0.24869 -1.75813,-0.75369 -2.87544,-1.12223 -1.44384,-0.47624 -2.89798,-0.7192 -5.02708,-0.83993 -2.27409,-0.12895 -3.56917,-0.0628 -5.37687,0.27466 -1.30968,0.24448 -3.51234,0.6905 -4.89479,0.99114 -1.38244,0.30064 -2.66524,0.66925 -2.85066,0.81913 -0.18542,0.14987 -0.40369,0.20593 -0.48504,0.12458 -0.0813,-0.0814 -0.94117,0.1398 -1.91069,0.49146 -0.96953,0.35166 -1.92389,0.63939 -2.12081,0.63939 -0.19692,0 -0.73321,0.16361 -1.19177,0.36358 -0.45855,0.19998 -1.84577,0.74122 -3.08269,1.20278 -1.23693,0.46155 -2.48709,0.94253 -2.77813,1.06885 -0.29104,0.12632 -1.05706,0.44827 -1.70227,0.71546 -0.6452,0.26718 -3.38364,1.60222 -6.08541,2.96675 -2.70178,1.36454 -5.38857,2.74368 -5.97065,3.06477 -0.58209,0.32109 -2.48709,1.33596 -4.23334,2.25526 -1.74625,0.91931 -4.66328,2.50296 -6.48229,3.51923 -1.81901,1.01627 -4.73604,2.82582 -6.48229,4.02122 -1.74625,1.1954 -4.1275,2.82721 -5.29167,3.62625 -1.16416,0.79903 -2.8914,2.0374 -3.83831,2.75192 -0.9469,0.71452 -2.66961,2.07304 -3.82824,3.01893 -1.15863,0.94588 -4.13801,3.74385 -6.62084,6.2177 -2.48284,2.47386 -5.22497,5.36795 -6.09363,6.43132 -0.86867,1.06337 -2.11861,2.64114 -2.77765,3.50615 -0.70087,0.91991 -1.38728,2.20949 -1.65364,3.10677 -0.25047,0.84372 -0.45539,1.91928 -0.45539,2.39014 0,0.47087 0.20002,1.17935 0.4445,1.57441 0.24448,0.39506 0.62443,0.86712 0.84432,1.04903 0.2199,0.1819 0.76401,0.32701 1.20914,0.32247 0.44513,-0.005 1.26715,-0.28964 1.82672,-0.63354 0.84722,-0.52071 1.12198,-0.92463 1.64276,-2.41502 0.34396,-0.98435 1.18363,-2.63402 1.86594,-3.66593 0.6823,-1.03192 1.71736,-2.47153 2.30013,-3.19913 0.58277,-0.7276 2.08325,-2.31167 3.33439,-3.52015 1.25114,-1.20849 2.88783,-2.60583 3.63708,-3.10523 0.74926,-0.49939 1.67096,-1.02533 2.04823,-1.16877 0.37727,-0.14344 0.86557,-0.19187 1.08511,-0.10762 0.25586,0.0982 0.39784,0.49925 0.39545,1.11706 -0.002,0.61872 -0.38156,1.65704 -1.05887,2.89958 -0.58034,1.06464 -2.04929,3.0887 -3.26434,4.49792 -1.21506,1.40921 -2.75154,3.06046 -3.41441,3.66943 -0.66287,0.60897 -1.82151,1.54999 -2.57476,2.09114 -0.75325,0.54116 -1.48988,1.29306 -1.63695,1.6709 -0.14707,0.37785 -0.31923,1.11661 -0.38258,1.6417 -0.0634,0.52509 0.004,1.26923 0.15055,1.65365 0.20983,0.55189 0.44154,0.69893 1.10134,0.69893 0.45959,0 1.68292,-0.42981 2.71853,-0.95514 1.03561,-0.52533 1.91558,-0.98463 1.95548,-1.02065 0.0399,-0.036 0.30755,-0.91348 0.59476,-1.9499 0.2872,-1.03642 0.87621,-2.61524 1.30891,-3.50849 0.4327,-0.89326 1.07126,-1.997 1.41903,-2.45277 0.34777,-0.45577 1.67836,-2.00343 2.95687,-3.43925 1.34153,-1.50659 2.99681,-3.04507 3.91422,-3.63802 0.87431,-0.5651 1.85611,-1.02744 2.18178,-1.02744 0.32567,0 0.66824,0.19834 0.76127,0.44075 0.0983,0.25623 -0.22067,1.26157 -0.76192,2.4013 -0.51208,1.0783 -1.17531,2.27894 -1.47384,2.6681 -0.29852,0.38915 -1.08366,1.4511 -1.74474,2.35988 -0.66109,0.90878 -2.50202,2.95168 -4.09096,4.53978 -2.09524,2.09414 -2.88898,3.0646 -2.88898,3.53219 0,0.3546 0.21774,0.84178 0.48386,1.08261 0.26612,0.24084 0.79247,0.43789 1.16967,0.43789 0.3772,0 1.64491,-0.40449 2.81712,-0.89887 1.17221,-0.49438 2.75921,-1.35365 3.52667,-1.9095 0.76747,-0.55585 1.45492,-1.07983 1.52768,-1.1644 0.0728,-0.0846 0.50339,-0.41274 0.95694,-0.72925 0.76681,-0.53513 0.83392,-0.71051 0.95684,-2.5008 0.083,-1.20833 0.39258,-2.56575 0.83141,-3.6451 0.38457,-0.94589 1.14787,-2.31511 1.69622,-3.04271 0.54836,-0.7276 1.57276,-1.70987 2.27646,-2.18281 0.90189,-0.60616 1.58536,-0.8599 2.31617,-0.8599 0.64551,0 1.09048,0.14005 1.17915,0.37114 0.0783,0.20412 -0.1251,1.00779 -0.45207,1.78593 -0.32697,0.77815 -1.0903,2.19303 -1.6963,3.14418 -0.60599,0.95116 -1.9541,2.69502 -2.99581,3.87526 -1.0417,1.18023 -1.89401,2.31602 -1.89401,2.52398 0,0.20796 0.27557,0.63698 0.61237,0.95339 0.3368,0.31641 0.8254,0.57529 1.08579,0.57529 0.26038,0 1.29661,-0.43258 2.30274,-0.96128 1.1112,-0.58392 2.71881,-1.80435 4.09514,-3.10886 l 2.26581,-2.14757 0.11269,-1.8363 c 0.0876,-1.42791 0.32487,-2.26569 1.0667,-3.76704 0.5247,-1.06191 1.41172,-2.45075 1.97117,-3.08631 0.55945,-0.63557 1.67374,-1.49933 2.47621,-1.91947 1.29168,-0.67629 1.50354,-0.71862 1.84696,-0.36906 0.341,0.3471 0.32872,0.5616 -0.10157,1.77374 -0.26923,0.7584 -1.1513,2.36574 -1.96018,3.57188 -0.80888,1.20614 -1.68048,2.49063 -1.93689,2.85444 -0.25642,0.3638 -0.61712,0.75667 -0.80157,0.87304 -0.19442,0.12266 -0.33537,0.74268 -0.33537,1.47523 0,0.97878 0.13805,1.39334 0.61237,1.83894 0.3368,0.31641 0.8662,0.57529 1.17645,0.57529 0.31024,0 1.29741,-0.4298 2.1937,-0.9551 0.8963,-0.5253 2.27189,-1.43541 3.05689,-2.02246 l 1.42726,-1.06738 0.002,-1.74784 c 0.001,-0.96132 0.22311,-2.47477 0.49333,-3.36324 0.27022,-0.88846 0.98528,-2.3428 1.58903,-3.23186 0.60375,-0.88906 1.54261,-2.05454 2.08636,-2.58995 0.54375,-0.53542 1.51796,-1.3135 2.16491,-1.72908 0.64696,-0.41558 1.45846,-0.75559 1.80333,-0.75559 0.34488,0 0.85735,0.12325 1.13883,0.27389 0.34427,0.18425 0.51177,0.55439 0.51177,1.13088 0,0.52882 -0.45249,1.65102 -1.18163,2.93049 -0.6499,1.14043 -1.46801,2.44723 -1.81804,2.90401 -0.35002,0.45679 -1.60422,1.9242 -2.78711,3.26093 -1.1829,1.33672 -2.15072,2.54861 -2.15072,2.69308 0,0.14447 0.1871,0.44977 0.41578,0.67844 0.24784,0.24785 0.8623,0.41343 1.52135,0.40997 0.60807,-0.003 1.60033,-0.23046 2.20503,-0.50503 0.60469,-0.27456 1.76555,-0.92531 2.57968,-1.44611 0.94881,-0.60694 1.48025,-1.12805 1.48025,-1.45148 0,-0.27752 0.23427,-1.26309 0.52061,-2.19014 0.28634,-0.92706 0.97095,-2.42896 1.52135,-3.33756 0.55041,-0.9086 1.47692,-2.14188 2.05891,-2.74062 0.58199,-0.59874 1.56722,-1.43886 2.18939,-1.86692 0.62217,-0.42807 1.45568,-0.80031 1.85225,-0.82722 0.62871,-0.0426 0.73144,0.0585 0.80236,0.78982 0.0494,0.50896 -0.17613,1.34118 -0.57348,2.11667 -0.36014,0.70286 -1.17464,2.0194 -1.81,2.92563 -0.63536,0.90623 -1.71675,2.23364 -2.40309,2.94979 -0.68634,0.71616 -1.24789,1.5374 -1.24789,1.82497 0,0.28757 0.0696,0.87094 0.1547,1.29637 0.10715,0.53574 0.502,0.99322 1.28452,1.48828 0.62139,0.39312 1.5081,0.71477 1.97046,0.71477 0.46236,0 1.24645,-0.16955 1.74244,-0.37679 0.74109,-0.30965 0.93214,-0.55717 1.07211,-1.38906 0.0937,-0.55675 0.29263,-1.42899 0.4421,-1.93831 0.14948,-0.50933 0.66587,-1.64042 1.14755,-2.51355 0.48168,-0.87312 1.56975,-2.37692 2.41793,-3.34178 0.84818,-0.96485 1.95887,-2.10118 2.46819,-2.52516 0.50932,-0.42399 1.26302,-0.98302 1.67487,-1.24229 0.41186,-0.25928 1.39994,-0.641 2.19573,-0.84827 0.79579,-0.20728 1.50061,-0.37687 1.56627,-0.37687 0.0657,0 0.11938,0.43047 0.11938,0.95661 0,0.69416 -0.33162,1.45543 -1.20881,2.7749 -0.66484,1.00007 -1.99033,2.73792 -2.94553,3.8619 -0.9552,1.12398 -2.47724,2.703 -3.38231,3.50894 -0.90507,0.80595 -1.9013,1.67255 -2.21384,1.92579 -0.31254,0.25324 -0.56826,0.68366 -0.56826,0.9565 0,0.27284 0.24677,0.80979 0.54837,1.19322 0.41722,0.53041 0.78428,0.69714 1.53478,0.69714 0.8971,0 1.03661,-0.1018 1.54093,-1.12448 0.30499,-0.61846 0.98281,-1.61878 1.50626,-2.22292 0.52345,-0.60414 1.50868,-1.46734 2.18939,-1.91822 0.68071,-0.45089 1.57444,-0.8198 1.98605,-0.8198 0.6072,0 0.74839,0.11623 0.74839,0.6161 0,0.33885 -0.36538,1.16772 -0.81196,1.84193 -0.44657,0.6742 -1.19072,1.5365 -1.65364,1.91621 -0.46293,0.37972 -1.25684,0.95352 -1.76424,1.27512 -0.5074,0.32159 -1.03052,0.89174 -1.16249,1.26698 -0.13197,0.37525 -0.15998,1.00086 -0.0623,1.39024 0.10915,0.43487 0.45552,0.81374 0.89791,0.98216 0.43219,0.16454 1.03005,0.18546 1.49499,0.0523 0.54009,-0.15466 0.96423,-0.58013 1.40025,-1.40466 0.34401,-0.65054 1.08826,-1.641 1.65388,-2.20102 0.74592,-0.73854 1.32423,-1.05789 2.10547,-1.16268 1.02535,-0.13753 1.07708,-0.11076 1.07708,0.55745 0,0.49222 -0.41497,1.121 -1.38906,2.10477 -0.76399,0.77157 -1.73797,1.66628 -2.16441,1.98824 -0.67232,0.5076 -0.74263,0.67829 -0.52917,1.28457 0.15203,0.43178 0.52368,0.77335 0.97178,0.89313 0.41595,0.11119 1.29737,0.0431 2.06544,-0.15948 0.73692,-0.1944 1.50564,-0.49104 1.70827,-0.65921 0.20263,-0.16816 0.50403,-0.71668 0.66978,-1.21891 0.16575,-0.50223 0.6004,-1.44818 0.96589,-2.1021 0.36548,-0.65393 1.05087,-1.48364 1.52308,-1.84381 0.47221,-0.36017 0.98912,-0.65486 1.1487,-0.65486 0.15957,0 0.3612,0.11498 0.44805,0.25551 0.0869,0.14053 -0.0803,0.72247 -0.37148,1.29321 -0.29117,0.57073 -1.12536,1.78028 -1.85375,2.68788 -1.08226,1.34851 -1.27582,1.74089 -1.05881,2.14637 0.18895,0.35305 0.55887,0.4962 1.28227,0.4962 0.55919,0 1.43208,-0.17355 1.93975,-0.38567 0.69998,-0.29247 0.96365,-0.58873 1.0911,-1.22596 0.0932,-0.46585 0.5889,-1.23719 1.11249,-1.73099 0.51943,-0.48989 1.11828,-0.89071 1.33076,-0.89071 0.21249,0 0.45325,0.17436 0.53503,0.38748 0.0818,0.21311 -0.12909,0.77759 -0.4686,1.2544 -0.33952,0.4768 -1.00547,1.20774 -1.47991,1.6243 -0.47444,0.41656 -0.86262,0.85947 -0.86262,0.98425 0,0.12478 0.26058,0.46963 0.57906,0.76634 0.32585,0.30358 0.93953,0.53948 1.40341,0.53948 0.45339,0 1.35367,-0.33695 2.00063,-0.74877 0.64695,-0.41183 1.872,-1.50218 2.72233,-2.42301 0.85033,-0.92083 1.66883,-1.98287 1.81888,-2.36009 0.15006,-0.37721 0.39719,-0.95373 0.54918,-1.28116 0.15199,-0.32742 0.37529,-0.59531 0.49622,-0.59531 0.12093,0 0.21988,0.30105 0.21988,0.66901 0,0.36795 -0.35254,1.36737 -0.78341,2.22093 -0.43088,0.85356 -1.44861,2.22784 -2.26163,3.05395 -0.81301,0.82612 -1.8854,1.67217 -2.38309,1.88011 -0.49768,0.20795 -1.39086,0.37809 -1.98485,0.37809 -0.59398,0 -1.41611,-0.17383 -1.82695,-0.38628 -0.41084,-0.21246 -0.81461,-0.6449 -0.89727,-0.96099 -0.12005,-0.45909 -0.2732,-0.53712 -0.76123,-0.38786 -0.33602,0.10277 -1.18191,0.25322 -1.87975,0.33435 -1.07436,0.12489 -1.36668,0.0555 -1.90751,-0.45254 l -0.63871,-0.60004 -1.47316,0.69751 c -0.9153,0.43334 -1.92601,0.69751 -2.66867,0.69751 -0.91644,0 -1.34699,-0.15156 -1.84485,-0.64943 -0.35719,-0.35719 -0.64944,-0.90819 -0.64944,-1.22444 0,-0.5173 -0.10059,-0.55892 -1.00225,-0.41474 -0.55123,0.0881 -1.43131,0.0418 -1.95573,-0.10301 -0.52442,-0.1448 -1.10857,-0.45013 -1.29811,-0.67851 -0.18954,-0.22839 -0.41229,-0.91096 -0.49499,-1.51683 l -0.15037,-1.10158 -1.47831,0.0854 c -1.36961,0.0791 -1.52801,0.0263 -2.15418,-0.71783 -0.37172,-0.44177 -0.71887,-0.93226 -0.77145,-1.08998 -0.0644,-0.19306 -0.41568,-0.15303 -1.07514,0.12251 -0.65225,0.27253 -1.8252,0.40929 -3.51039,0.40929 -2.15849,0 -2.71444,0.0943 -3.77881,0.64117 -0.68639,0.35264 -2.15833,1.57303 -3.27099,2.71197 -1.11266,1.13895 -2.57977,2.89457 -3.26026,3.90139 -0.68048,1.00682 -1.82395,3.04695 -2.54104,4.53364 -0.7171,1.48668 -1.30381,2.89534 -1.30381,3.13036 0,0.23501 0.11906,0.4273 0.26458,0.4273 0.14553,0 0.24077,-0.0893 0.21166,-0.19844 -0.0291,-0.10914 0.25914,-0.80099 0.64055,-1.53744 0.38141,-0.73645 1.13257,-1.86456 1.66924,-2.50692 0.53667,-0.64235 1.40929,-1.47952 1.93914,-1.86037 0.52986,-0.38086 1.17624,-0.76878 1.43641,-0.86206 0.27634,-0.0991 0.52673,-0.0297 0.60217,0.16692 0.071,0.18509 -0.68943,1.77033 -1.68991,3.52275 -1.00048,1.75242 -1.89671,3.49565 -1.99163,3.87384 -0.0949,0.3782 -0.351,0.86605 -0.56906,1.08411 -0.21807,0.21806 -0.39648,0.57911 -0.39648,0.80233 0,0.22321 -0.22665,1.03539 -0.50367,1.80483 -0.27701,0.76945 -0.82773,2.44372 -1.22382,3.72061 -0.39608,1.2769 -0.95198,2.61635 -1.23533,2.97657 -0.28334,0.36021 -0.7239,0.65493 -0.97902,0.65493 -0.25511,0 -0.72556,-0.27859 -1.04544,-0.61909 -0.31989,-0.3405 -0.69259,-1.00604 -0.82822,-1.47897 -0.18313,-0.63854 -0.13735,-1.13296 0.17785,-1.92073 0.33588,-0.83945 0.35478,-1.10391 0.0905,-1.26722 -0.21924,-0.1355 -0.33836,-0.89447 -0.34684,-2.20989 -0.007,-1.10193 0.10575,-2.1581 0.25077,-2.34703 0.14502,-0.18894 0.53584,-1.17696 0.86848,-2.19561 0.33264,-1.01864 1.01995,-2.63904 1.52736,-3.60088 0.50741,-0.96185 1.51377,-2.53824 2.23634,-3.50309 0.72258,-0.96486 2.10885,-2.53802 3.08062,-3.49591 0.97176,-0.95789 2.572,-2.27229 3.5561,-2.92087 0.98409,-0.64858 2.09306,-1.29475 2.46437,-1.43593 l 0.67512,-0.25667 -0.59487,-1.05843 c -0.32718,-0.58213 -0.68844,-1.05842 -0.80282,-1.05842 -0.11437,0 -0.89612,0.34581 -1.73721,0.76846 -0.8411,0.42266 -2.09898,0.95844 -2.79529,1.19063 -0.69631,0.23218 -1.90967,0.42216 -2.69636,0.42216 -0.78669,0 -1.50393,-0.11907 -1.59387,-0.26459 -0.0899,-0.14552 -0.34482,-0.26458 -0.5664,-0.26458 -0.22158,0 -0.89916,0.40335 -1.50574,0.89633 -0.60657,0.49298 -2.07395,1.40218 -3.26083,2.02045 -1.56332,0.81436 -2.47196,1.12413 -3.2974,1.12413 -0.98146,0 -1.25471,-0.13338 -1.97111,-0.96212 -0.45742,-0.52917 -0.89529,-0.96212 -0.97303,-0.96212 -0.0777,0 -1.19562,0.88992 -2.48417,1.9776 -1.28856,1.08768 -2.9209,2.29223 -3.62744,2.67677 -0.70653,0.38455 -1.87886,0.85594 -2.60517,1.04753 -0.72632,0.1916 -1.4927,0.28231 -1.70307,0.20158 -0.21038,-0.0807 -0.55975,-0.48954 -0.77639,-0.90846 -0.21663,-0.41893 -0.45291,-0.76169 -0.52506,-0.76169 -0.0721,0 -0.87276,0.57316 -1.77914,1.27368 -0.90638,0.70053 -2.60047,1.8744 -3.76463,2.6086 -1.16417,0.73421 -2.47386,1.51371 -2.91042,1.73223 -0.43656,0.21852 -1.30377,0.47545 -1.92712,0.57095 -0.67831,0.10392 -1.36883,0.0526 -1.7198,-0.12782 -0.32253,-0.16581 -0.9037,-0.59714 -1.29149,-0.95851 l -0.70508,-0.65705 -2.20534,0.85419 c -1.22265,0.47356 -2.92725,0.91358 -3.82545,0.98749 -1.40356,0.11549 -1.69533,0.0581 -2.18281,-0.42939 -0.32379,-0.32379 -0.5627,-0.89972 -0.5627,-1.35645 0,-0.54048 -0.13083,-0.79375 -0.41002,-0.79375 -0.2255,0 -0.73152,0.16534 -1.12448,0.36743 -0.39295,0.20209 -1.3693,0.39957 -2.16967,0.43884 -0.80036,0.0393 -1.71881,0.0525 -2.04098,0.0294 -0.35175,-0.0252 -0.85385,-0.43646 -1.25677,-1.02942 -0.39054,-0.57473 -0.671,-1.36054 -0.671,-1.88004 0,-0.49092 0.18779,-1.62414 0.41731,-2.51827 0.22952,-0.89413 0.8436,-2.50437 1.36463,-3.5783 0.52102,-1.07394 1.36459,-2.50269 1.87459,-3.175 0.50999,-0.67232 2.26103,-2.77021 3.89118,-4.66198 1.63015,-1.89177 4.67669,-5.0538 6.77008,-7.02674 2.09339,-1.97294 4.40148,-4.1238 5.12909,-4.77969 0.7276,-0.65589 1.50151,-1.33267 1.71979,-1.50396 0.21828,-0.17129 1.07345,-0.84816 1.90038,-1.50416 0.82693,-0.65601 1.63434,-1.19274 1.79424,-1.19274 0.15991,0 0.35927,-0.17859 0.44303,-0.39687 0.0838,-0.21828 0.30357,-0.39688 0.48847,-0.39688 0.18489,0 0.47631,-0.16886 0.6476,-0.37525 0.17128,-0.20638 1.16813,-0.88494 2.21521,-1.50791 1.04707,-0.62296 2.45608,-1.58519 3.13112,-2.13829 0.67504,-0.5531 1.41918,-1.00563 1.65365,-1.00563 0.23446,0 0.4263,-0.11906 0.4263,-0.26458 0,-0.14552 0.16585,-0.26459 0.36856,-0.26459 0.20272,0 0.4371,-0.17859 0.52087,-0.39687 0.0838,-0.21828 0.36439,-0.40083 0.62362,-0.40567 0.25923,-0.005 0.94757,-0.35414 1.52966,-0.77624 0.58208,-0.42209 1.71317,-1.09777 2.51354,-1.50149 0.80036,-0.40373 2.0724,-1.1246 2.82675,-1.60194 0.75436,-0.47734 1.44599,-0.98834 1.53697,-1.13555 0.091,-0.14721 0.37866,-0.26765 0.63928,-0.26765 0.26062,0 0.96693,-0.35719 1.56959,-0.79375 0.60266,-0.43657 1.14761,-0.79375 1.211,-0.79375 0.0634,0 1.01743,-0.41672 2.12008,-0.92605 1.10265,-0.50932 2.1829,-0.92604 2.40057,-0.92604 0.21767,0 0.39576,-0.11447 0.39576,-0.25438 0,-0.13991 0.47122,-0.38127 1.04716,-0.53636 0.57594,-0.15508 1.11875,-0.3978 1.20624,-0.53936 0.0875,-0.14157 0.37809,-0.2574 0.64576,-0.2574 0.26768,0 1.18339,-0.36742 2.03491,-0.81648 0.85152,-0.44907 2.73884,-1.28165 4.19405,-1.85017 1.45521,-0.56852 2.87147,-1.1654 3.14724,-1.32639 0.27577,-0.16099 1.16874,-0.52637 1.98437,-0.81196 0.81564,-0.28558 2.01876,-0.70197 2.6736,-0.9253 0.65485,-0.22333 1.51564,-0.45152 1.91287,-0.50709 0.39723,-0.0556 1.17114,-0.29227 1.71979,-0.52601 0.54865,-0.23374 1.29151,-0.48153 1.65079,-0.55064 0.35928,-0.0691 0.78108,-0.23174 0.93732,-0.36142 0.15625,-0.12967 1.11245,-0.42447 2.12489,-0.65512 1.01244,-0.23064 2.73377,-0.59834 3.82517,-0.81711 1.09141,-0.21878 3.3536,-0.39989 5.02709,-0.40248 1.68739,-0.003 4.51587,0.22014 6.35,0.50009 2.54249,0.38807 3.70171,0.70439 5.01289,1.36789 0.93808,0.47471 2.3073,1.30859 3.04271,1.85308 0.73541,0.5445 1.83687,1.53357 2.44769,2.19794 0.61082,0.66438 1.52526,2.03138 2.03207,3.03778 0.50682,1.00641 1.11954,2.59343 1.36159,3.52672 0.24205,0.93328 0.6174,2.58985 0.83411,3.68126 0.26042,1.31153 0.46549,4.81028 0.60483,10.31875 0.14149,5.59392 0.32288,8.66062 0.55164,9.32656 0.20381,0.5933 0.50914,0.98886 0.75946,0.98391 0.23025,-0.005 1.01395,-0.30112 1.74155,-0.65904 0.7276,-0.35792 1.46835,-0.65185 1.6461,-0.65318 0.17775,-0.001 0.97077,-0.28881 1.76225,-0.63884 1.02349,-0.45264 1.7193,-1.00659 2.40946,-1.91823 0.53371,-0.705 1.75205,-2.53197 2.70743,-4.05993 0.95538,-1.52797 2.15134,-3.55204 2.65768,-4.49792 0.50634,-0.94589 1.38225,-2.40306 1.94646,-3.23815 0.56421,-0.8351 1.02583,-1.61135 1.02583,-1.725 0,-0.11365 0.53453,-0.91867 1.18784,-1.78893 0.65332,-0.87026 1.1891,-1.72521 1.19063,-1.89988 0.002,-0.17467 0.16279,-0.41279 0.35835,-0.52916 0.19557,-0.11638 0.92294,-0.85528 1.61638,-1.642 0.69345,-0.78673 2.1292,-2.21548 3.19055,-3.175 1.06136,-0.95952 2.32828,-2.06503 2.81539,-2.45667 0.48711,-0.39165 1.89768,-1.2379 3.13461,-1.88056 1.23693,-0.64265 3.14193,-1.39378 4.23333,-1.66916 1.43732,-0.36267 2.85966,-0.49468 5.15938,-0.47888 2.26964,0.0156 3.58995,0.15587 4.63021,0.49192 0.80036,0.25855 2.22911,0.88405 3.175,1.39001 0.94588,0.50595 2.2237,1.40865 2.8396,2.00599 l 1.11981,1.08607 0.73227,-0.63886 c 0.40275,-0.35138 1.40679,-1.28313 2.23121,-2.07056 1.33806,-1.27804 1.48429,-1.52189 1.36256,-2.27206 -0.11384,-0.70147 0.0203,-1.00167 0.81149,-1.81641 0.52133,-0.53682 1.03928,-0.98209 1.15099,-0.98949 0.11171,-0.007 0.73889,-0.0777 1.39373,-0.15632 0.65485,-0.0786 1.36922,-0.35053 1.5875,-0.60433 0.21829,-0.2538 0.99219,-0.68194 1.7198,-0.95142 0.79346,-0.29387 2.06415,-0.49666 3.175,-0.5067 1.52874,-0.0138 2.09374,0.11029 3.23627,0.71086 0.76131,0.40018 1.53521,0.72657 1.71979,0.72531 0.18458,-0.001 0.79865,-0.44111 1.3646,-0.97743 0.79886,-0.75705 1.23278,-0.96937 1.94011,-0.94932 0.54313,0.0154 1.15844,0.25818 1.52349,0.60113 0.38514,0.36182 0.89247,0.55286 1.36718,0.51484 0.41514,-0.0333 0.95898,-0.0425 1.20852,-0.0206 0.24954,0.0219 0.59861,0.30779 0.77571,0.63521 0.18312,0.33854 0.29667,1.36562 0.26328,2.38125 l -0.0587,1.78594 16.34864,0.002 c 8.99175,9.8e-4 18.25364,0.0388 20.58197,0.084 2.77603,0.054 4.57784,0.20934 5.23409,0.45136 0.61672,0.22744 0.97208,0.51702 0.92604,0.75462 -0.0411,0.21205 -0.60743,0.6672 -1.25853,1.01145 -0.6511,0.34425 -2.02031,0.74341 -3.04271,0.88702 -1.02239,0.14361 -2.03748,0.31561 -2.25576,0.38224 -0.21829,0.0666 -1.7661,0.29826 -3.43959,0.51476 -1.67349,0.21649 -4.74808,0.72488 -6.83243,1.12974 l -3.78973,0.73611 0.16882,1.85208 c 0.0928,1.01865 0.27501,2.50693 0.40482,3.3073 0.1298,0.80036 0.30103,2.11005 0.3805,2.91041 0.0795,0.80037 0.25141,2.52677 0.38208,3.83646 0.13067,1.30969 0.31117,3.51234 0.40111,4.89479 0.0899,1.38245 0.22465,3.04933 0.29937,3.70417 0.0747,0.65484 0.2472,2.67891 0.38328,4.49792 0.13609,1.81901 0.54463,6.28385 0.90787,9.92187 0.36325,3.63802 0.78767,9.29349 0.94316,12.56771 0.15548,3.27422 0.39846,7.02469 0.53994,8.33437 0.14148,1.30969 0.43385,4.88157 0.6497,7.9375 0.21586,3.05594 0.57694,6.80641 0.8024,8.33438 0.22547,1.52797 0.46133,2.92695 0.52414,3.10885 0.0628,0.1819 0.29653,0.33073 0.51938,0.33073 0.31912,0 0.40517,-0.33939 0.40517,-1.59804 0,-1.04917 0.17267,-1.9352 0.50271,-2.57969 0.29031,-0.5669 1.01616,-1.30479 1.71801,-1.74649 1.0212,-0.64268 1.28611,-0.98948 1.65863,-2.17123 0.24383,-0.77352 0.87367,-1.97715 1.39965,-2.67474 0.52598,-0.69759 1.69992,-1.83129 2.60876,-2.51933 0.90884,-0.68804 2.21456,-1.41456 2.90161,-1.61449 l 1.24918,-0.36352 0.16133,-1.47386 c 0.10638,-0.97179 0.37677,-1.74654 0.79375,-2.27432 0.34783,-0.44025 1.1333,-0.99947 1.74548,-1.24271 0.74655,-0.29663 1.42662,-0.38343 2.06528,-0.26362 0.52372,0.0983 1.1837,0.41012 1.46662,0.69305 0.28293,0.28292 0.51441,0.75253 0.51441,1.04357 0,0.29105 -0.10615,0.52917 -0.2359,0.52917 -0.12974,0 -0.31166,-0.30187 -0.40426,-0.67082 -0.0958,-0.38152 -0.45786,-0.78088 -0.83966,-0.92604 -0.36921,-0.14037 -0.99096,-0.25478 -1.38167,-0.25423 -0.39071,5.3e-4 -1.10544,0.24184 -1.58828,0.53622 -0.52807,0.32196 -1.08246,0.99769 -1.39126,1.69579 -0.39899,0.90198 -0.45404,1.3166 -0.24708,1.86095 0.14646,0.38521 0.38752,0.62547 0.53568,0.5339 0.14817,-0.0916 0.18461,-0.30369 0.081,-0.47137 -0.10363,-0.16769 -0.16109,-0.66353 -0.12769,-1.10189 0.0334,-0.43835 0.17578,-0.91205 0.3164,-1.05267 0.1645,-0.16451 0.25711,0.0698 0.25972,0.65714 0.002,0.50205 0.11682,1.09141 0.25466,1.30969 0.13783,0.21828 0.48236,0.40986 0.76562,0.42574 0.28327,0.0159 1.14346,0.11223 1.91155,0.21412 0.76809,0.10189 1.99931,0.47285 2.73605,0.82434 0.73674,0.3515 2.01829,1.17504 2.8479,1.83008 1.20166,0.94882 1.69344,1.58232 2.41856,3.11554 0.5006,1.05851 0.98591,2.35941 1.07845,2.89089 0.0926,0.53149 0.0392,1.48399 -0.11847,2.11667 -0.1577,0.63268 -0.32944,1.53496 -0.38164,2.00506 -0.0522,0.4701 -0.48044,1.52857 -0.95165,2.35216 -0.4712,0.82359 -1.22541,1.91732 -1.676,2.43052 -0.4506,0.5132 -1.17131,1.14718 -1.60157,1.40884 -0.55204,0.33571 -0.78567,0.68842 -0.79376,1.19831 -0.009,0.54281 -0.29087,0.91939 -1.13457,1.51369 -0.86613,0.6101 -1.49117,0.81774 -2.73167,0.90747 -0.99156,0.0717 -1.72279,0.002 -1.90637,-0.18146 -0.16379,-0.16379 -0.57539,-0.29781 -0.91465,-0.29781 -0.33927,0 -0.68376,0.17437 -0.76554,0.38749 -0.0818,0.21311 0.13032,0.77866 0.47132,1.25677 0.48867,0.68513 0.63893,1.28968 0.70928,2.85366 0.0538,1.19636 -0.0775,2.70011 -0.33073,3.78673 -0.27239,1.16896 -0.41999,3.04116 -0.41999,5.32743 0,2.48957 -0.12595,3.94204 -0.42876,4.94452 -0.23582,0.78069 -0.82211,2.2568 -1.30286,3.28024 -0.56107,1.1944 -0.92867,2.45091 -1.02645,3.50861 -0.0838,0.9063 -0.40014,2.21207 -0.703,2.90171 -0.30286,0.68964 -0.71765,1.64084 -0.92176,2.11378 -0.20411,0.47294 -0.51249,0.8599 -0.68528,0.8599 -0.1728,0 -0.52648,0.19213 -0.78597,0.42696 -0.37623,0.34049 -0.63072,0.37156 -1.25647,0.15342 -0.43158,-0.15045 -1.04079,-0.52964 -1.3538,-0.84265 -0.31301,-0.31301 -0.91742,-1.42385 -1.34314,-2.46852 -0.42571,-1.04468 -0.77444,-2.29033 -0.77493,-2.76811 -5.3e-4,-0.47778 0.29122,-1.44519 0.64827,-2.1498 0.35706,-0.7046 0.83331,-1.35175 1.05834,-1.43811 0.30842,-0.11835 0.41011,-0.56613 0.41306,-1.81895 0.002,-0.91407 0.18766,-2.43586 0.41226,-3.38174 0.27231,-1.14686 0.3505,-2.22662 0.23469,-3.24115 -0.0955,-0.83674 -0.29366,-1.52135 -0.44033,-1.52135 -0.14667,0 -0.70203,0.3448 -1.23413,0.76623 -0.5321,0.42143 -1.91845,1.13085 -3.08078,1.57648 -1.16233,0.44563 -3.1849,1.04737 -4.49458,1.33719 -1.30969,0.28982 -3.27422,0.89725 -4.36563,1.34983 -1.0914,0.45258 -2.69875,0.98907 -3.57187,1.19219 -0.87313,0.20312 -2.89719,0.39564 -4.49792,0.42783 -2.15507,0.0433 -3.28809,-0.0603 -4.36563,-0.39931 -0.80036,-0.25181 -1.66195,-0.57055 -1.91463,-0.70831 -0.25269,-0.13776 -0.59645,-0.25047 -0.7639,-0.25047 -0.16746,0 -1.11552,-0.53432 -2.1068,-1.18738 -0.99129,-0.65306 -2.25488,-1.36138 -2.80798,-1.57403 -0.55311,-0.21266 -1.52901,-0.52103 -2.16867,-0.68528 -0.63966,-0.16424 -1.49124,-0.54129 -1.8924,-0.83788 -0.40115,-0.29658 -0.83072,-0.49568 -0.9546,-0.44244 -0.12387,0.0532 -0.84987,0.76315 -1.61333,1.57758 -0.76346,0.81443 -1.3881,1.62284 -1.3881,1.79648 0,0.17363 -0.24293,0.79188 -0.53984,1.37387 -0.29691,0.582 -0.92199,1.29118 -1.38906,1.57597 -0.46708,0.28479 -1.28965,0.51825 -1.82795,0.51879 -0.8069,7.9e-4 -1.10187,-0.16047 -1.6802,-0.9187 -0.38581,-0.50583 -1.25508,-1.2681 -1.9317,-1.69394 -0.67661,-0.42584 -1.5726,-1.10224 -1.99107,-1.50311 -0.41847,-0.40086 -1.00107,-1.2757 -1.29466,-1.94407 -0.2936,-0.66838 -0.75489,-1.49918 -1.02509,-1.84623 -0.27019,-0.34704 -0.49127,-0.8463 -0.49127,-1.10947 0,-0.26317 0.22105,-0.63406 0.49121,-0.82422 0.27017,-0.19015 0.57403,-0.60788 0.67524,-0.92829 0.12163,-0.385 -0.045,-1.06662 -0.49121,-2.0099 -0.44318,-0.93683 -0.67324,-1.8732 -0.66943,-2.72473 0.003,-0.71357 0.22562,-1.77364 0.49427,-2.35572 0.26865,-0.58209 0.77367,-1.32054 1.12228,-1.64102 0.3486,-0.32048 1.04892,-0.75844 1.55626,-0.97325 0.50733,-0.21481 1.12962,-0.63721 1.38286,-0.93867 0.25323,-0.30146 0.68602,-0.54811 0.96175,-0.54811 0.27573,0 0.69857,0.30102 0.93963,0.66894 0.24107,0.36791 0.37188,0.7764 0.2907,0.90776 -0.0812,0.13135 -0.0301,0.31145 0.11354,0.40022 0.14363,0.0888 0.33472,-0.13177 0.42465,-0.49008 0.0899,-0.35831 0.55331,-1.25649 1.02973,-1.99597 0.47642,-0.73948 1.38859,-1.80295 2.02706,-2.36325 0.63846,-0.56031 1.5671,-1.22785 2.06364,-1.48341 0.49654,-0.25557 1.5805,-0.52612 2.40882,-0.60123 0.84036,-0.0762 1.92204,8e-4 2.44724,0.17407 0.51767,0.17085 1.00754,0.48347 1.08861,0.69471 0.0811,0.21124 0.32744,0.38408 0.54752,0.38408 0.22008,0 0.45563,-0.26789 0.52346,-0.59531 0.0678,-0.32743 0.36014,-1.84547 0.64957,-3.37344 0.28943,-1.52797 0.72227,-3.84969 0.96187,-5.15938 0.2396,-1.30968 0.6594,-3.51234 0.9329,-4.89479 0.2735,-1.38245 0.91088,-4.83526 1.4164,-7.67292 0.50551,-2.83765 1.22356,-7.30249 1.59567,-9.92187 0.37211,-2.61937 0.9095,-6.48891 1.19421,-8.59896 0.28471,-2.11005 0.59092,-4.61036 0.68048,-5.55625 0.0896,-0.94588 0.50304,-3.86291 0.91885,-6.48229 0.4158,-2.61937 0.84221,-5.53641 0.94756,-6.48229 0.10536,-0.94589 0.22329,-1.95792 0.26207,-2.24896 0.0388,-0.29104 0.19495,-1.5412 0.34704,-2.77812 0.15208,-1.23693 0.41574,-4.18845 0.58589,-6.55894 0.17015,-2.37048 0.23402,-4.38532 0.14192,-4.47742 -0.0921,-0.0921 -1.5062,0.0335 -3.14246,0.27911 -1.63625,0.24561 -5.53485,0.79382 -8.66355,1.21825 -3.12869,0.42443 -7.35541,0.96377 -9.3927,1.19854 -2.0373,0.23477 -4.27828,0.60801 -4.97996,0.82942 -0.70169,0.22141 -2.21973,1.00185 -3.37344,1.73432 -1.1537,0.73247 -2.09765,1.38235 -2.09765,1.44418 0,0.0618 0.41363,0.93376 0.91917,1.93763 0.50554,1.00387 1.16119,2.69754 1.45701,3.76371 0.29581,1.06617 0.82332,3.42677 1.17224,5.24578 0.34892,1.81901 0.81886,4.73604 1.04432,6.48229 0.22546,1.74625 0.59533,4.84188 0.82194,6.87917 0.22661,2.03729 0.58927,6.02588 0.80591,8.86354 0.21664,2.83765 0.39392,5.7169 0.39394,6.39831 5e-5,1.0066 -0.0992,1.27044 -0.52911,1.4069 -0.29104,0.0924 -0.52917,0.27071 -0.52917,0.3963 0,0.12559 0.26789,0.2664 0.59532,0.3129 0.57049,0.081 0.59846,0.20521 0.67092,2.97915 0.0636,2.43467 0.008,2.93238 -0.34919,3.13233 -0.386,0.21602 -0.38322,0.26813 0.0303,0.57055 0.41512,0.30354 0.42714,0.55126 0.13669,2.81608 -0.1998,1.55798 -0.53504,2.87538 -0.89971,3.53565 -0.40456,0.73248 -0.88712,1.16871 -1.58742,1.435 -0.92965,0.35351 -1.05975,0.3426 -1.71087,-0.14353 -0.38759,-0.28938 -1.0518,-1.09092 -1.47601,-1.7812 -0.43866,-0.71379 -0.82965,-1.78836 -0.9066,-2.49165 -0.0938,-0.85733 -0.37259,-1.50932 -0.90899,-2.12587 -0.42553,-0.48911 -0.88182,-1.17372 -1.014,-1.52136 -0.14182,-0.37302 -0.45529,-0.63206 -0.76487,-0.63206 -0.34194,0 -0.76747,-0.4145 -1.22231,-1.19063 -0.38376,-0.65484 -0.85943,-1.19062 -1.05704,-1.19062 -0.19761,0 -0.66615,-0.13982 -1.04122,-0.31071 -0.41056,-0.18707 -0.91502,-0.8188 -1.26767,-1.5875 -0.5101,-1.11193 -0.68843,-1.27702 -1.38104,-1.27854 -0.43741,-0.001 -1.14221,-0.23044 -1.56622,-0.50996 -0.42401,-0.27951 -1.10969,-1.0126 -1.52372,-1.62908 -0.41403,-0.61648 -0.89086,-1.60739 -1.05961,-2.20202 -0.16875,-0.59463 -0.37673,-1.16517 -0.46216,-1.26786 -0.0854,-0.10269 -0.65981,-0.0587 -1.27639,0.0978 -0.90223,0.22901 -1.23781,0.20804 -1.71925,-0.10741 -0.32901,-0.21558 -0.89543,-0.97398 -1.2587,-1.68534 -0.63747,-1.2483 -0.6605,-1.47322 -0.6605,-6.45275 0,-4.63021 -0.0543,-5.26793 -0.52916,-6.21771 -0.40554,-0.81108 -0.78182,-1.14569 -1.61058,-1.43221 -1.00412,-0.34716 -1.18849,-0.3295 -2.57989,0.2472 -1.11276,0.46122 -1.90475,1.06825 -3.07679,2.35826 -0.86807,0.95544 -1.87288,2.15388 -2.23292,2.66321 -0.36004,0.50932 -0.90669,1.46182 -1.21478,2.11666 -0.30808,0.65485 -1.09355,2.55985 -1.74548,4.23334 -0.65194,1.67348 -1.58566,3.88371 -2.07494,4.9116 -0.48928,1.02789 -1.45791,2.7543 -2.15253,3.83646 -0.69461,1.08216 -2.28415,2.98017 -3.53231,4.21779 -1.24815,1.23763 -3.06461,2.81521 -4.03657,3.50573 -0.97196,0.69053 -1.84475,1.2555 -1.93954,1.2555 -0.0948,0 -0.78782,0.38866 -1.54008,0.8637 -0.75227,0.47503 -1.65422,1.02342 -2.00434,1.21864 -0.35012,0.19522 -1.42169,0.74633 -2.38125,1.22469 -0.95957,0.47836 -3.02465,1.36777 -4.58907,1.97647 -1.56442,0.6087 -3.52895,1.2119 -4.36563,1.34044 -0.83667,0.12854 -2.82131,0.47668 -4.41032,0.77364 -1.589,0.29695 -3.79547,0.53992 -4.90326,0.53992 h -2.01417 l -2.03066,1.46443 c -1.11685,0.80544 -2.77992,1.92672 -3.69569,2.49174 -0.91577,0.56502 -3.28237,1.99452 -5.25912,3.17667 -2.19855,1.3148 -4.47455,2.94132 -5.86166,4.18899 -1.24717,1.12179 -2.91183,2.81353 -3.69925,3.75942 -0.78742,0.94588 -2.88916,3.67352 -4.67052,6.06141 -1.78137,2.38788 -3.39845,4.65007 -3.59352,5.02708 -0.19507,0.37701 -1.16059,1.87609 -2.14561,3.3313 -0.98501,1.45521 -2.22355,3.24114 -2.7523,3.96875 -0.52875,0.7276 -1.28498,1.8587 -1.6805,2.51354 -0.39552,0.65484 -1.104,1.74908 -1.57439,2.43165 -0.47038,0.68256 -1.3315,2.03989 -1.91358,3.01629 -0.58209,0.97639 -1.83385,2.73965 -2.78169,3.91835 -0.94785,1.17869 -2.25754,2.87602 -2.91042,3.77183 -0.65288,0.89581 -1.72651,1.99796 -2.38585,2.44923 -0.65933,0.45127 -1.61104,0.93873 -2.11491,1.08324 -0.50388,0.14451 -1.2676,0.26274 -1.69716,0.26274 -0.48589,0 -1.05971,-0.267 -1.51854,-0.70659 -0.6753,-0.64698 -0.77697,-0.6719 -1.2051,-0.29541 -0.25717,0.22615 -0.96918,0.66334 -1.58223,0.97154 -0.61306,0.30819 -1.53902,0.61469 -2.05768,0.68109 -0.51867,0.0664 -1.05261,0.18846 -1.18654,0.27124 -0.13393,0.0828 -0.78555,0.20534 -1.44805,0.27238 z m 10.74608,-3.38914 c 0.56289,-0.0755 1.62126,-0.52089 2.35192,-0.98976 0.73067,-0.46887 1.7247,-1.34312 2.20895,-1.94277 0.48426,-0.59966 1.20583,-1.6856 1.60351,-2.4132 0.39767,-0.72761 0.88979,-1.51089 1.0936,-1.74063 0.20381,-0.22974 0.37057,-0.51802 0.37057,-0.64062 0,-0.12261 0.18309,-0.42523 0.40687,-0.67251 0.22379,-0.24728 1.28869,-1.86399 2.36647,-3.59271 1.07777,-1.72871 2.21166,-3.5003 2.51974,-3.93686 0.30809,-0.43657 1.30432,-1.92485 2.21384,-3.3073 0.90953,-1.38244 2.35152,-3.52557 3.20442,-4.7625 0.8529,-1.23692 2.031,-2.9038 2.61801,-3.70416 0.587,-0.80037 1.15893,-1.57427 1.27095,-1.71979 0.11201,-0.14552 0.83825,-1.03849 1.61385,-1.98438 0.77559,-0.94588 2.14022,-2.67229 3.0325,-3.83646 0.89228,-1.16416 2.19533,-2.7345 2.89565,-3.48964 0.70033,-0.75514 2.03872,-2.04063 2.97421,-2.85664 0.93549,-0.81602 2.78096,-2.1188 4.10104,-2.89507 1.32009,-0.77626 3.055,-1.76904 3.85536,-2.20616 0.80037,-0.43712 2.2303,-1.25494 3.17763,-1.81738 0.94733,-0.56243 2.0117,-1.22823 2.36529,-1.47954 0.35357,-0.25132 0.59052,-0.50262 0.52654,-0.55845 -0.064,-0.0558 -1.21262,-0.17597 -2.55254,-0.26699 l -2.4362,-0.16548 -1.53255,1.34893 c -0.8429,0.74191 -3.02082,2.32372 -4.83983,3.51513 -1.81901,1.19142 -3.75964,2.39845 -4.31252,2.6823 -0.62495,0.32084 -1.26503,0.96649 -1.692,1.7067 -0.37773,0.65484 -1.58728,2.55984 -2.6879,4.23333 -1.10061,1.67349 -2.43686,3.57849 -2.96942,4.23334 -0.53256,0.65484 -1.53755,2.14312 -2.2333,3.30729 -0.69575,1.16417 -1.76174,2.77151 -2.36887,3.57187 -0.60714,0.80037 -1.54189,2.12238 -2.07723,2.93781 -0.53534,0.81542 -0.97335,1.55504 -0.97335,1.64359 0,0.0885 -0.69121,1.14779 -1.53603,2.35386 -0.84482,1.20608 -1.9278,2.72865 -2.40663,3.38349 -0.47882,0.65485 -0.98708,1.15791 -1.12946,1.11793 -0.14238,-0.04 -0.18618,0.0449 -0.0973,0.18868 0.0889,0.14376 -0.64118,1.48617 -1.62227,2.98312 -0.98111,1.49695 -2.6572,3.72396 -3.72465,4.9489 -1.34427,1.5426 -2.35997,2.43717 -3.30447,2.91041 -0.75001,0.37579 -1.41593,0.85025 -1.47983,1.05437 -0.0908,0.28987 0.0943,0.33695 0.84537,0.21507 0.5415,-0.0879 0.96155,-0.046 0.96155,0.0958 0,0.13851 -0.38695,0.48776 -0.85989,0.77612 -0.49993,0.30482 -1.33063,0.52471 -1.98438,0.52528 -0.61846,5.3e-4 -1.12448,0.11032 -1.12448,0.24393 0,0.13362 0.0774,0.44456 0.17193,0.69098 0.1345,0.35051 0.39471,0.41816 1.19536,0.31077 z m -0.19871,-2.05933 c 0.27891,0.0115 0.43518,-0.051 0.34727,-0.13896 -0.0879,-0.0879 -0.31613,-0.0973 -0.50712,-0.0209 -0.21107,0.0845 -0.14838,0.14716 0.15985,0.15985 z m 177.33164,-2.09578 c 0.0838,0 0.076,-0.40743 -0.0174,-0.90541 -0.0985,-0.52512 -0.0553,-0.97619 0.10285,-1.07394 0.15249,-0.0942 0.2727,0.0647 0.2727,0.36062 0,0.29105 0.11557,0.6006 0.25682,0.6879 0.14126,0.0873 0.32887,-0.17357 0.41692,-0.5797 0.088,-0.40613 0.46223,-1.36214 0.83151,-2.12446 0.50181,-1.03586 0.62871,-1.61382 0.5023,-2.28765 -0.0935,-0.4985 -0.0312,-1.23919 0.13946,-1.65667 0.16973,-0.41528 0.46042,-1.11225 0.64598,-1.54881 0.18556,-0.43656 0.65355,-1.77462 1.03998,-2.97346 0.56297,-1.74653 0.72225,-2.82443 0.80149,-5.42396 0.0544,-1.78434 0.29631,-4.07769 0.53759,-5.09633 0.24129,-1.01865 0.42861,-2.41625 0.41628,-3.10579 -0.0123,-0.68954 -0.19381,-1.66391 -0.4033,-2.16527 -0.21399,-0.51216 -0.82474,-1.19648 -1.39389,-1.56181 -0.8403,-0.53937 -1.4518,-0.67402 -3.58657,-0.78972 -2.28297,-0.12373 -2.69168,-0.22406 -3.61983,-0.88865 -0.57546,-0.41205 -1.35213,-1.2195 -1.72593,-1.79433 -0.3738,-0.57483 -0.67964,-1.25944 -0.67964,-1.52135 0,-0.26191 -0.23812,-0.71433 -0.52916,-1.00537 -0.29104,-0.29104 -0.82682,-0.52917 -1.19063,-0.52917 -0.45491,0 -0.66036,0.14458 -0.65794,0.46302 0.002,0.25466 0.22867,1.71318 0.50386,3.24115 0.27518,1.52797 0.74458,4.14734 1.0431,5.82083 0.29853,1.67349 0.72804,4.40341 0.95448,6.06649 0.22643,1.66307 0.45876,3.07084 0.51628,3.12836 0.0575,0.0575 0.44308,-0.0715 0.85678,-0.28666 0.41371,-0.21518 1.0007,-0.67045 1.30444,-1.0117 0.33741,-0.37908 0.67827,-1.3358 0.87622,-2.45934 0.17819,-1.0114 0.52089,-2.17226 0.76157,-2.57969 0.24068,-0.40744 0.53099,-0.74079 0.64514,-0.74079 0.11414,0 0.20753,0.0444 0.20753,0.0987 0,0.0543 -0.25715,0.67934 -0.57144,1.38906 -0.41243,0.93134 -0.57579,1.84257 -0.58707,3.27478 -0.0112,1.42114 0.1238,2.26974 0.47557,2.98976 0.47612,0.97457 0.47653,1.06758 0.0134,3.03419 -0.40826,1.73361 -0.43672,2.35727 -0.19562,4.28628 0.15519,1.24161 0.25125,2.29057 0.21348,2.33102 -0.0378,0.0405 -0.3822,-0.0457 -0.76539,-0.19133 -0.5925,-0.22527 -0.75216,-0.17692 -1.06748,0.32332 -0.20392,0.32352 -0.45401,0.86646 -0.55574,1.20653 -0.10174,0.34007 -0.11265,1.00382 -0.0243,1.475 0.0884,0.47118 0.39314,1.10616 0.67721,1.41107 0.28407,0.30491 0.69614,0.95085 0.91572,1.43542 0.36046,0.79549 0.39706,0.81681 0.37697,0.21957 -0.0122,-0.3638 -0.009,-0.81731 0.007,-1.0078 0.0161,-0.19049 0.14835,-0.27276 0.29387,-0.18282 0.14553,0.0899 0.26459,0.40244 0.26459,0.69446 0,0.29202 0.12325,0.76125 0.27389,1.04272 0.15064,0.28147 0.34249,0.51177 0.42632,0.51177 z m -174.46532,-1.19349 c 0.32742,-0.094 0.93072,-0.54845 1.34067,-1.01001 0.40994,-0.46156 1.19321,-1.31545 1.7406,-1.89754 0.54738,-0.58208 1.22256,-1.41552 1.50039,-1.85208 0.27783,-0.43656 0.62565,-0.99178 0.77294,-1.23381 0.14729,-0.24204 1.27032,-1.90891 2.49563,-3.70417 1.22532,-1.79526 2.30173,-3.32364 2.39204,-3.3964 0.0903,-0.0728 1.26067,-1.77965 2.60081,-3.7931 1.34013,-2.01344 2.43661,-3.75504 2.43661,-3.8702 0,-0.11517 0.19478,-0.37106 0.43286,-0.56865 0.23807,-0.19758 0.74409,-0.82229 1.12448,-1.38825 0.38039,-0.56596 1.05977,-1.6099 1.50973,-2.31986 0.44997,-0.70997 1.40247,-2.03388 2.11667,-2.94203 0.7142,-0.90816 2.34035,-3.19002 3.61365,-5.07081 1.27331,-1.8808 2.31511,-3.52624 2.31511,-3.65654 0,-0.1303 -0.4917,0.0386 -1.09266,0.37533 -0.60096,0.33673 -1.5237,1.10229 -2.05052,1.70125 -0.52683,0.59895 -1.42685,1.78957 -2.00005,2.64583 -0.57321,0.85625 -1.30571,1.85448 -1.62779,2.21828 -0.32208,0.36381 -1.79386,2.4474 -3.27062,4.63021 -1.47675,2.18281 -3.48269,5.19548 -4.45762,6.69481 -0.97494,1.49934 -2.39026,3.58293 -3.14517,4.63021 -0.7549,1.04728 -2.40078,3.39243 -3.65751,5.21144 -1.25673,1.81901 -2.57728,3.71694 -2.93454,4.21762 -0.35728,0.50068 -0.72425,1.20782 -0.81551,1.57142 -0.0913,0.3636 -0.56409,1.05926 -1.05072,1.54589 -0.48664,0.48664 -0.88479,1.00791 -0.88479,1.15839 0,0.15795 0.25163,0.20139 0.59531,0.10277 z M 359.00973,226.1718 c 0.77299,-0.10365 1.30412,-0.3856 1.82548,-0.96907 0.40443,-0.45259 0.66529,-0.93619 0.5797,-1.07467 -0.0856,-0.13848 -0.44624,-0.25179 -0.80145,-0.25179 -0.35522,0 -0.6454,-0.0893 -0.64485,-0.19843 5.3e-4,-0.10914 0.53843,-0.41946 1.19529,-0.6896 0.65687,-0.27014 1.69822,-0.98539 2.31412,-1.58945 0.61589,-0.60406 1.41114,-1.69273 1.76721,-2.41926 0.35607,-0.72653 0.92697,-2.39253 1.26868,-3.70221 0.3417,-1.30969 0.97158,-3.75047 1.39972,-5.42396 0.42814,-1.67349 0.77997,-3.3106 0.78184,-3.63802 0.003,-0.44741 -0.14924,-0.59532 -0.61093,-0.59532 -0.33788,0 -1.20108,0.19943 -1.91823,0.44318 -0.88226,0.29987 -1.74109,0.89032 -2.65587,1.82592 -0.74358,0.76051 -1.85685,2.31725 -2.47393,3.45943 -0.61708,1.14217 -1.5137,3.26731 -1.99249,4.72252 -0.4788,1.4552 -0.95226,3.03142 -1.05216,3.50269 -0.0999,0.47128 -0.29674,0.92801 -0.43744,1.01497 -0.1407,0.087 -0.4315,0.0123 -0.64622,-0.1659 -0.27579,-0.22889 -0.34067,-0.5891 -0.221,-1.22699 0.12666,-0.67513 0.0591,-0.98363 -0.26771,-1.2226 -0.24041,-0.1758 -0.64176,-1.00901 -0.89189,-1.8516 -0.25012,-0.84258 -0.57384,-1.49631 -0.71936,-1.45273 -0.14552,0.0436 -0.24729,0.31736 -0.22616,0.60841 0.0211,0.29104 0.12839,0.82682 0.23833,1.19062 l 0.19989,0.66146 -0.68871,-0.72761 c -0.37879,-0.40018 -0.79975,-0.7276 -0.93546,-0.7276 -0.13572,0 0.15173,-0.43505 0.63877,-0.96678 0.74728,-0.81583 0.94907,-0.91404 1.29246,-0.62906 0.22381,0.18575 0.40692,0.55885 0.40692,0.82913 0,0.27028 0.1935,0.97503 0.43001,1.56611 0.2365,0.59108 0.56258,1.0305 0.72462,0.97649 0.16204,-0.054 0.46166,-0.53711 0.66583,-1.07354 0.34284,-0.90079 0.31642,-1.14379 -0.34564,-3.17905 -0.57755,-1.77545 -0.70571,-2.62564 -0.65947,-4.37484 0.0339,-1.28239 -0.0598,-2.28833 -0.2289,-2.45743 -0.15746,-0.15746 -0.46167,-0.219 -0.67601,-0.13675 -0.21434,0.0822 -0.4689,0.51012 -0.5657,0.95081 -0.15797,0.71927 -0.25498,0.78547 -0.94789,0.64689 -0.48587,-0.0972 -1.00561,-10e-4 -1.40254,0.25881 -0.34684,0.22726 -0.69721,0.68835 -0.77859,1.02464 -0.0814,0.3363 -0.27853,1.12937 -0.43809,1.76239 -0.25859,1.02592 -0.21746,1.30962 0.37863,2.61166 0.36781,0.8034 0.66874,1.67643 0.66874,1.94008 0,0.26365 0.23742,0.55472 0.5276,0.64682 0.29018,0.0921 0.70799,0.34785 0.92847,0.56833 0.22048,0.22048 0.33591,0.50599 0.2565,0.63447 -0.0794,0.12848 -0.37815,-1.8e-4 -0.66388,-0.28591 -0.28574,-0.28574 -0.63858,-0.51952 -0.78411,-0.51952 -0.14552,0 -0.26458,0.10448 -0.26458,0.23219 0,0.1277 0.17859,0.3804 0.39688,0.56156 0.21828,0.18116 0.39687,0.49339 0.39687,0.69385 0,0.20047 -0.0904,0.36448 -0.20094,0.36448 -0.11051,0 -0.35689,-0.24972 -0.5475,-0.55493 -0.1906,-0.30521 -0.4148,-0.48668 -0.49822,-0.40327 -0.0834,0.0834 10e-4,0.33602 0.18833,0.56133 0.18699,0.22531 0.24719,0.49608 0.13377,0.60171 -0.11342,0.10562 -0.25937,0.0432 -0.32434,-0.13869 -0.065,-0.1819 -0.34632,-0.33073 -0.62523,-0.33073 -0.31653,0 -0.50712,0.18347 -0.50712,0.48816 0,0.26849 0.22725,0.69381 0.50499,0.94517 0.27775,0.25135 0.65396,0.83536 0.83604,1.29778 0.18207,0.46242 0.61295,1.22407 0.9575,1.69255 0.34454,0.46848 1.44243,1.37964 2.43974,2.0248 0.99731,0.64516 1.90244,1.31726 2.01139,1.49355 0.12908,0.20886 0.57798,0.26961 1.28829,0.17435 z m 24.5058,-1.27847 c 0.65485,0.0169 1.98869,-0.0846 2.96411,-0.22571 0.97542,-0.14107 2.24435,-0.4449 2.81985,-0.67517 0.84167,-0.33677 1.14879,-0.6608 1.57002,-1.65648 0.28802,-0.6808 0.71573,-1.91099 0.95047,-2.73375 0.23474,-0.82276 0.42862,-2.07292 0.43085,-2.77813 0.002,-0.7052 0.13045,-1.46078 0.28493,-1.67907 0.20267,-0.28635 0.24554,0.3399 0.15398,2.24896 -0.0844,1.75984 -0.32163,3.20543 -0.70843,4.31695 -0.31985,0.91911 -0.53979,1.70375 -0.48876,1.74364 0.051,0.0399 1.04527,-0.14475 2.20944,-0.41031 1.16417,-0.26555 2.77151,-0.60686 3.57187,-0.75846 0.80037,-0.1516 1.62489,-0.38169 1.83228,-0.51131 0.32535,-0.20336 0.3185,-0.6469 -0.0499,-3.23413 -0.23484,-1.64915 -0.55877,-4.42721 -0.71983,-6.17346 -0.16107,-1.74625 -0.46686,-4.18703 -0.67954,-5.42396 -0.21267,-1.23693 -0.68952,-4.74927 -1.05966,-7.80521 -0.37013,-3.05593 -0.95187,-8.83047 -1.29275,-12.83229 -0.34087,-4.00182 -0.63599,-8.70479 -0.65581,-10.45104 -0.0198,-1.74625 -0.1547,-4.78234 -0.29974,-6.74687 -0.14503,-1.96454 -0.50329,-5.59594 -0.79613,-8.0698 -0.29284,-2.47385 -0.70109,-6.46244 -0.90723,-8.86354 -0.20613,-2.40109 -0.56217,-6.62781 -0.79121,-9.39271 -0.22903,-2.76489 -0.60621,-6.81302 -0.83816,-8.99583 -0.23196,-2.18281 -0.44675,-4.56406 -0.4773,-5.29167 -0.0306,-0.7276 -0.0755,-2.07533 -0.0999,-2.99496 -0.0416,-1.57199 -0.0799,-1.66699 -0.6396,-1.5875 -0.59345,0.0843 -0.5955,0.1019 -0.65533,5.61262 -0.033,3.04044 -0.12231,5.59037 -0.19844,5.6665 -0.0761,0.0761 -0.20493,0.0719 -0.28622,-0.009 -0.0813,-0.0813 -0.2072,-2.57168 -0.27979,-5.5342 -0.0726,-2.96253 -0.2285,-5.42085 -0.34643,-5.46295 -0.11794,-0.0421 -0.29454,1.02946 -0.39245,2.38125 -0.0979,1.35178 -0.36299,3.94607 -0.58908,5.76508 -0.22609,1.81901 -0.51528,3.48589 -0.64263,3.70417 -0.15706,0.26917 -0.23249,0.0138 -0.23445,-0.79375 -0.002,-0.65484 0.17466,-2.73844 0.39166,-4.63021 0.217,-1.89177 0.46977,-4.12419 0.5617,-4.96094 0.16544,-1.50582 0.16011,-1.52135 -0.52269,-1.52135 -0.43077,0 -0.80191,0.2094 -0.98824,0.55757 -0.21175,0.39566 -0.21629,0.6397 -0.0156,0.84037 0.17964,0.17964 0.19163,0.39266 0.0329,0.58395 -0.13747,0.16562 -0.41958,1.42457 -0.62693,2.79765 -0.20734,1.37307 -0.52289,3.56806 -0.70121,4.87775 -0.17831,1.30969 -0.61064,4.10766 -0.96072,6.21771 -0.35009,2.11005 -0.8067,4.55083 -1.0147,5.42396 -0.208,0.87312 -0.61228,2.77812 -0.89839,4.23333 -0.28611,1.45521 -0.78037,4.31271 -1.09836,6.35 -0.31798,2.03729 -1.03125,5.96635 -1.58505,8.73125 -0.55379,2.7649 -1.20428,5.74146 -1.44553,6.61458 -0.24125,0.87313 -0.84448,3.7613 -1.34051,6.41816 -0.49603,2.65687 -1.26992,6.58593 -1.71974,8.73125 -0.44982,2.14533 -0.92463,4.49591 -1.05512,5.22351 -0.1305,0.7276 -0.54076,2.8112 -0.9117,4.63021 -0.37094,1.81901 -0.92256,4.37885 -1.22582,5.68854 -0.30326,1.30969 -0.97016,3.98859 -1.48201,5.95312 -0.51184,1.96454 -1.45268,5.14441 -2.09074,7.06639 -0.63806,1.92198 -1.16012,3.79447 -1.16012,4.16109 0,0.40034 0.23903,0.82319 0.59846,1.0587 0.32915,0.21566 1.72813,0.58415 3.10885,0.81885 1.38072,0.2347 3.02523,0.59835 3.65447,0.80811 0.62923,0.20976 1.25622,0.31207 1.3933,0.22735 0.13709,-0.0847 0.82236,-1.00904 1.52284,-2.05404 0.70048,-1.04499 1.48712,-2.31671 1.74808,-2.82603 0.26097,-0.50932 0.9492,-1.87854 1.52939,-3.04271 0.5802,-1.16416 1.29398,-2.71198 1.58618,-3.43958 0.2922,-0.7276 0.64188,-1.70987 0.77708,-2.18281 0.1352,-0.47295 0.3485,-0.8599 0.47401,-0.8599 0.12551,0 0.0703,0.56555 -0.12276,1.25677 -0.19304,0.69123 -0.58377,1.85209 -0.8683,2.57969 -0.28453,0.7276 -1.34985,3.05659 -2.36739,5.17552 -1.01754,2.11894 -2.22338,4.27778 -2.67964,4.79743 -0.45626,0.51965 -0.82957,1.00471 -0.82957,1.0779 0,0.0732 0.28906,0.32248 0.64235,0.55396 0.35328,0.23148 1.51414,0.65205 2.57968,0.93458 1.06554,0.28254 2.23501,0.56688 2.59881,0.63186 0.3638,0.065 1.19724,0.132 1.85208,0.14893 z m -2.9713,-15.83372 c -0.14792,0 -0.19212,-0.26355 -0.0998,-0.59531 0.0911,-0.32743 0.29376,-1.48642 0.45044,-2.57555 0.15667,-1.08912 0.33016,-2.05353 0.38553,-2.14312 0.0554,-0.0896 0.35041,-1.75833 0.65566,-3.70831 0.30524,-1.94998 0.51819,-4.37886 0.47321,-5.3975 -0.0643,-1.45669 -0.002,-1.85209 0.29159,-1.85209 0.21257,0 0.41792,0.33278 0.47684,0.77276 0.0569,0.42502 -0.0173,1.97283 -0.16494,3.43958 -0.14764,1.46676 -0.64383,4.45277 -1.10265,6.63558 -0.45882,2.18281 -0.89411,4.29617 -0.96732,4.69635 -0.0732,0.40019 -0.25255,0.72761 -0.39852,0.72761 z m -22.15652,4.7625 c 0.10298,0 0.62596,-0.74414 1.16217,-1.65365 0.53621,-0.9095 1.56752,-2.39855 2.29179,-3.30899 0.72426,-0.91044 1.81602,-1.97046 2.42612,-2.3556 0.6101,-0.38514 1.75041,-0.86768 2.53402,-1.07231 0.7836,-0.20462 1.49029,-0.3065 1.57041,-0.22638 0.0801,0.0801 0.30545,0.0131 0.50074,-0.14901 0.19529,-0.16208 0.35507,-0.67455 0.35507,-1.13883 0,-0.58959 -0.23563,-1.06989 -0.78138,-1.59276 -0.57401,-0.54993 -1.12257,-0.78139 -2.06698,-0.87214 -1.06637,-0.10246 -1.56794,0.019 -2.94126,0.71225 -0.92068,0.46475 -2.23237,1.44042 -2.95481,2.19786 -0.71454,0.74915 -1.73332,2.18829 -2.26395,3.19809 -0.86759,1.65102 -0.95092,1.98563 -0.82711,3.32113 0.0757,0.81682 0.28848,1.81255 0.4728,2.21273 0.18432,0.40019 0.41939,0.72761 0.52237,0.72761 z m 52.31367,-5.82084 c 0.1964,0 0.7158,-0.18549 1.15422,-0.4122 0.65865,-0.34061 1.03907,-0.36198 2.19005,-0.12304 0.76612,0.15905 1.62189,0.21397 1.90172,0.12205 0.27983,-0.0919 0.89643,-0.36165 1.37021,-0.59941 0.47378,-0.23776 0.92508,-0.63285 1.00288,-0.87797 0.0778,-0.24512 0.0675,-0.7405 -0.023,-1.10085 -0.11506,-0.45846 -0.41619,-0.71467 -1.00287,-0.8533 l -0.83844,-0.19811 1.18077,-0.18666 c 0.98405,-0.15556 1.39737,-0.42489 2.48096,-1.6166 0.71511,-0.78647 1.64228,-2.17147 2.06038,-3.07778 0.60361,-1.30843 0.76018,-2.02239 0.76018,-3.46625 0,-1.00013 -0.1409,-2.22313 -0.3131,-2.71779 -0.17221,-0.49466 -0.72358,-1.47107 -1.22526,-2.16981 -0.50169,-0.69874 -1.61722,-1.74923 -2.47896,-2.33443 -0.86174,-0.5852 -1.94749,-1.22068 -2.41276,-1.41219 -0.46528,-0.19151 -1.48534,-0.43408 -2.2668,-0.53904 -1.13931,-0.15303 -1.398,-0.11953 -1.30553,0.16908 0.0634,0.19796 0.49444,0.47385 0.95782,0.61308 0.46338,0.13923 0.84251,0.33626 0.84251,0.43785 0,0.10158 -0.50602,0.11803 -1.12448,0.0366 -0.61846,-0.0815 -1.39468,-0.32347 -1.72492,-0.53777 -0.39474,-0.25616 -0.93014,-0.33614 -1.56286,-0.23347 -0.52933,0.0859 -1.61833,0.59168 -2.41999,1.12395 -0.80165,0.53227 -1.76524,1.32918 -2.1413,1.77091 -0.37606,0.44174 -0.89269,1.11203 -1.14808,1.48953 -0.25538,0.37751 -0.71048,1.34123 -1.01133,2.14159 -0.30084,0.80037 -0.79726,1.7231 -1.10314,2.05052 -0.30588,0.32742 -0.69323,0.59531 -0.86078,0.59531 -0.16754,0 -0.58061,0.29378 -0.91792,0.65283 -0.41595,0.44275 -0.65457,1.08225 -0.74153,1.98731 -0.10921,1.13659 -0.0234,1.4858 0.5788,2.35473 0.38886,0.56113 0.82647,1.48254 0.97246,2.04758 0.14599,0.56504 0.40118,1.29931 0.56709,1.6317 0.16592,0.3324 0.71574,0.86027 1.22183,1.17306 0.5061,0.31278 1.46607,0.66536 2.13327,0.78352 0.6672,0.11815 1.9149,0.32781 2.77267,0.4659 0.85776,0.13809 1.68525,0.37674 1.83885,0.53035 0.1536,0.1536 0.43997,0.27927 0.63637,0.27927 z m 6.56414,-1.85208 c -0.20969,0 -0.45484,-0.11906 -0.54478,-0.26458 -0.0899,-0.14552 -0.63275,-0.26459 -1.20624,-0.26459 -0.5735,0 -1.04272,-0.11906 -1.04272,-0.26458 0,-0.14552 0.5715,-0.26458 1.27,-0.26458 0.6985,0 1.41288,0.14287 1.5875,0.3175 0.17463,0.17462 0.3175,0.41275 0.3175,0.52916 0,0.11642 -0.17156,0.21167 -0.38126,0.21167 z m -12.33456,-1.85208 c -0.15005,0 -0.56506,-0.29225 -0.92225,-0.64944 -0.53337,-0.53337 -0.64943,-0.91163 -0.64943,-2.11666 0,-0.80698 0.11906,-1.46724 0.26459,-1.46724 0.14552,0 0.26458,0.57686 0.26458,1.28191 0,0.91954 0.14089,1.40942 0.49843,1.73299 0.39789,0.36009 0.77146,0.41485 1.85208,0.2715 0.77901,-0.10334 1.35366,-0.0761 1.35366,0.0642 0,0.13409 -0.5375,0.38756 -1.19443,0.56326 -0.65693,0.1757 -1.31719,0.31946 -1.46723,0.31946 z m 6.75329,-2.38125 c -0.19232,0 -0.53677,-0.1871 -0.76544,-0.41578 -0.22868,-0.22867 -0.41578,-0.58586 -0.41578,-0.79375 0,-0.20788 0.0498,-0.37797 0.11065,-0.37797 0.0609,0 0.29899,-0.0723 0.52917,-0.1606 0.2725,-0.10457 0.41852,-0.0152 0.41852,0.25628 0,0.26185 0.14758,0.36024 0.39687,0.26458 0.21828,-0.0838 0.39688,-0.0302 0.39688,0.11896 0,0.14918 -0.0723,0.45958 -0.1606,0.68976 -0.0883,0.23019 -0.31795,0.41852 -0.51027,0.41852 z m 1.19499,-1.05834 c -0.14275,0 -0.25954,-0.3426 -0.25954,-0.76135 0,-0.41874 -0.17372,-0.90552 -0.38604,-1.08174 -0.23602,-0.19587 -0.69872,-0.2517 -1.19062,-0.14366 -0.51618,0.11337 -0.80459,0.0723 -0.80459,-0.11456 0,-0.16021 0.28416,-0.42075 0.63147,-0.579 0.47666,-0.21718 0.81123,-0.19957 1.36466,0.0718 0.40325,0.19774 0.85099,0.54947 0.99499,0.7816 0.14399,0.23214 0.18247,0.73816 0.0855,1.12448 -0.097,0.38633 -0.29309,0.70241 -0.43584,0.70241 z m -6.55662,-0.26458 c -0.11642,0 -0.35455,-0.14287 -0.52917,-0.3175 -0.17463,-0.17462 -0.31485,-0.56158 -0.31162,-0.85989 0.006,-0.50721 0.0394,-0.49949 0.52329,0.11906 0.28457,0.3638 0.52004,0.75075 0.52328,0.85989 0.003,0.10914 -0.0894,0.19844 -0.20578,0.19844 z m -0.62335,-3.76116 c -0.20978,0.0414 -0.46491,-0.008 -0.56695,-0.11025 -0.10205,-0.10204 -0.18554,-0.39963 -0.18554,-0.66129 0,-0.26167 0.22563,-0.59651 0.50138,-0.7441 0.37617,-0.20131 0.58709,-0.16506 0.84456,0.14517 0.24828,0.29915 0.26641,0.53538 0.0656,0.85433 -0.15268,0.24246 -0.44924,0.47473 -0.65902,0.51614 z m 1.83635,-0.73676 c -0.15337,0 -0.19208,-0.29036 -0.0919,-0.68947 0.1096,-0.43668 0.0225,-0.91919 -0.23746,-1.31599 -0.33194,-0.50661 -0.57477,-0.60104 -1.26884,-0.4934 l -0.85834,0.13311 0.84433,-0.44525 c 0.79024,-0.41673 0.8877,-0.41684 1.52136,-0.002 0.46826,0.30682 0.67702,0.6798 0.67702,1.20962 0,0.4213 -0.0723,0.95434 -0.1606,1.18452 -0.0883,0.23012 -0.27983,0.41845 -0.42556,0.41845 z m -54.94997,-6.87916 c 0.12078,0 0.37261,-0.26789 0.55964,-0.59531 0.24417,-0.42749 0.34003,-2.01253 0.34003,-5.6224 0,-2.7649 -0.0999,-6.81302 -0.22208,-8.99583 -0.12215,-2.18282 -0.2559,-4.26641 -0.29723,-4.63021 -0.0413,-0.3638 -0.15507,-1.85208 -0.25275,-3.30729 -0.0977,-1.45521 -0.29376,-4.13412 -0.43571,-5.95313 -0.14195,-1.81901 -0.38086,-4.31932 -0.5309,-5.55625 -0.15004,-1.23692 -0.51145,-3.73724 -0.80313,-5.55625 -0.29168,-1.81901 -0.71669,-4.43838 -0.94445,-5.82083 -0.22777,-1.38245 -0.74313,-3.47503 -1.14525,-4.65019 -0.40211,-1.17515 -0.93209,-2.52529 -1.17773,-3.0003 -0.39881,-0.77121 -0.49415,-0.82333 -0.89057,-0.48688 -0.24417,0.20723 -1.6941,1.37296 -3.22207,2.5905 -1.52797,1.21754 -3.60926,2.93391 -4.62508,3.81414 -1.01582,0.88024 -2.38504,2.09443 -3.04271,2.6982 -0.65766,0.60377 -1.81899,1.58735 -2.58072,2.18573 -0.76173,0.59838 -2.84421,2.5066 -4.62772,4.24049 -1.78351,1.73389 -3.15745,3.23783 -3.0532,3.34208 0.10426,0.10425 0.34877,0.0574 0.54337,-0.10408 0.19459,-0.1615 0.81075,-0.35031 1.36924,-0.41958 0.67642,-0.0839 1.33624,0.0377 1.9763,0.36424 0.52847,0.26961 1.09098,0.76887 1.25003,1.10948 0.15905,0.34061 0.44994,0.97648 0.64641,1.41304 0.25869,0.5748 0.35901,2.18049 0.36368,5.82084 0.006,4.83181 0.0314,5.07064 0.64868,6.14837 0.49031,0.85603 0.84616,1.15955 1.50419,1.283 0.47407,0.0889 0.97908,0.0893 1.12225,7.9e-4 0.14546,-0.0899 0.25158,-1.35634 0.24055,-2.87049 -0.0124,-1.69955 0.11897,-3.10414 0.35239,-3.76795 0.25494,-0.72502 0.54871,-1.08354 0.93275,-1.13837 0.39806,-0.0568 0.60792,0.0966 0.72378,0.52917 0.0897,0.33506 0.16479,1.31311 0.16678,2.17344 0.002,0.86034 -0.18814,2.17255 -0.4225,2.91602 -0.40677,1.29043 -0.40012,1.43903 0.14654,3.27463 0.44351,1.4892 0.83381,2.1954 1.73066,3.13142 0.63691,0.66471 1.31511,1.15664 1.50711,1.09318 0.22054,-0.0729 0.40591,-0.769 0.50337,-1.8903 0.10253,-1.17957 0.3338,-2.0156 0.6895,-2.49247 0.29437,-0.39466 0.72417,-0.75475 0.95512,-0.8002 0.29697,-0.0584 0.47166,0.19328 0.59671,0.8599 0.0973,0.51839 0.0953,1.38902 -0.004,1.93472 -0.0996,0.5457 -0.40787,1.38144 -0.68499,1.85718 -0.49936,0.85728 -0.49876,0.87548 0.0673,2.0406 0.31413,0.64658 0.73894,1.23998 0.944,1.31867 0.20507,0.0787 0.48118,0.0761 0.61356,-0.006 0.13239,-0.0818 0.24071,-0.47244 0.24071,-0.86803 0,-0.3956 0.19113,-0.99214 0.42473,-1.32566 0.36075,-0.51504 0.43739,-1.74948 0.50872,-8.19481 0.0462,-4.17363 0.2044,-8.76126 0.35157,-10.19475 0.14717,-1.43348 0.33496,-2.67372 0.41732,-2.75608 0.0824,-0.0823 0.2237,-0.0758 0.31409,0.0146 0.0904,0.0904 0.14664,1.7938 0.12498,3.78536 -0.0216,1.99155 -0.0815,3.69361 -0.13311,3.78235 -0.0516,0.0887 -0.17446,2.89978 -0.27311,6.24676 -0.0987,3.34698 -0.23662,6.28376 -0.30659,6.52617 -0.07,0.24242 -0.003,0.51733 0.14814,0.61093 0.15144,0.0936 0.27534,0.40702 0.27534,0.6965 0,0.28949 -0.22362,0.98918 -0.49694,1.55488 -0.48504,1.00393 -0.48514,1.04795 -0.004,1.8393 0.27118,0.44592 0.59147,0.81076 0.71177,0.81076 0.12029,0 0.44946,-0.32742 0.73149,-0.7276 0.45378,-0.64389 0.49512,-1.03202 0.3593,-3.37344 -0.0844,-1.45521 -0.13522,-6.96066 -0.11289,-12.23433 0.0223,-5.27368 0.12116,-9.66907 0.21963,-9.76754 0.0985,-0.0985 0.26833,-0.089 0.37747,0.0209 0.10914,0.10997 0.19844,5.75552 0.19844,12.54566 0,6.79013 0.0948,12.49207 0.21067,12.67096 0.11587,0.1789 0.081,0.56752 -0.0774,0.86361 -0.16102,0.30086 -0.21178,0.94522 -0.11508,1.46067 0.0952,0.50729 0.29923,0.92234 0.45348,0.92234 0.15425,0 0.48111,-0.1816 0.72637,-0.40355 0.40032,-0.36229 0.48249,-0.35948 0.80364,0.0275 0.30314,0.36526 0.28874,0.55123 -0.0944,1.21874 -0.24865,0.43324 -0.45092,1.04595 -0.4495,1.36158 0.001,0.31563 0.28416,1.17857 0.62831,1.91765 0.34414,0.73908 0.95435,1.60229 1.35601,1.91823 0.40166,0.31595 0.82911,0.57445 0.94988,0.57445 z m -1.07396,-5.66308 c -0.17233,0.57605 -0.24535,0.10626 -0.29182,-1.87755 -0.0341,-1.45521 -0.0889,-3.83645 -0.1218,-5.29166 -0.0329,-1.45521 8e-4,-3.98242 0.0748,-5.61603 0.074,-1.6336 0.22801,-2.91248 0.34214,-2.84194 0.11413,0.0705 0.21179,3.44264 0.21701,7.49357 0.005,4.05093 -0.0939,7.71105 -0.22034,8.13361 z m -2.24464,-3.6593 c -0.0371,0.0387 -0.14501,-1.02141 -0.23973,-2.35575 -0.0947,-1.33435 -0.17221,-4.82964 -0.17221,-7.76733 0,-2.93768 0.0783,-7.15111 0.17409,-9.36318 0.12558,-2.90139 0.25439,-3.94164 0.46232,-3.7337 0.19202,0.19202 0.28848,2.42602 0.28894,6.69185 2.7e-4,3.52199 -0.0998,8.6658 -0.2226,11.4307 -0.12281,2.76489 -0.25367,5.05873 -0.29081,5.09741 z m -8.9176,-9.19845 c -0.0948,0 -0.25929,-1.50811 -0.3656,-3.35134 -0.10631,-1.84324 -0.10612,-6.79554 5.3e-4,-11.00512 0.10655,-4.20958 0.21778,-7.81772 0.24719,-8.01809 0.0294,-0.20037 0.12861,-0.43945 0.22046,-0.53129 0.0918,-0.0918 0.25059,0.2787 0.35278,0.82343 0.1022,0.54473 0.0883,3.62275 -0.031,6.84006 -0.11921,3.2173 -0.22468,7.963 -0.23438,10.54599 -0.01,2.583 -0.0952,4.69636 -0.18993,4.69636 z m 3.89481,-5.68855 c -0.19011,2.61938 -0.37806,4.70297 -0.41767,4.63021 -0.0396,-0.0728 -0.10534,-1.26338 -0.14606,-2.64583 -0.0407,-1.38245 0.0347,-4.7162 0.16767,-7.40833 0.13295,-2.69214 0.3161,-5.31151 0.407,-5.82084 0.13372,-0.74929 0.20102,-0.82837 0.35261,-0.41431 0.10305,0.28144 0.14117,1.94832 0.0847,3.70416 -0.0564,1.75584 -0.25817,5.33557 -0.44828,7.95494 z m -1.99614,3.04271 c -0.11888,0 -0.27071,-0.98226 -0.33741,-2.18281 -0.0667,-1.20055 -0.085,-4.445 -0.0407,-7.2099 0.0443,-2.76489 0.15979,-5.89028 0.25662,-6.94531 0.0968,-1.05502 0.27168,-1.91823 0.38854,-1.91823 0.11686,0 0.2903,0.35433 0.38541,0.7874 0.0951,0.43307 0.0244,3.32033 -0.1571,6.41614 -0.18152,3.09582 -0.31861,6.84914 -0.30463,8.34073 0.014,1.49159 -0.0719,2.71198 -0.19074,2.71198 z m -9.17931,-2.38125 c -0.0316,0 -0.1154,-0.0937 -0.18621,-0.20832 -0.0708,-0.11457 -0.15239,-1.87074 -0.18128,-3.9026 -0.0289,-2.03186 -0.0375,-5.45046 -0.0192,-7.59689 0.0184,-2.14643 0.13744,-3.9026 0.26463,-3.9026 0.12731,0 0.21962,3.50832 0.20537,7.8052 -0.0142,4.29287 -0.0517,7.80521 -0.0833,7.80521 z m 1.79725,-3.83646 c -0.0927,2.0676 -0.25383,3.49004 -0.36459,3.21951 -0.10914,-0.26656 -0.19713,-3.65984 -0.19553,-7.54063 0.002,-3.88077 0.0763,-7.50008 0.16606,-8.04289 0.0897,-0.54282 0.26701,-0.92274 0.39396,-0.84428 0.12695,0.0785 0.21629,2.24898 0.19854,4.82339 -0.0178,2.57441 -0.10705,6.34761 -0.19844,8.3849 z m 4.14609,-6.35 c -0.0434,3.05594 -0.14772,5.31813 -0.23182,5.02709 -0.0841,-0.29104 -0.17475,-2.55323 -0.20144,-5.02709 -0.0267,-2.47385 -0.12058,-5.24205 -0.20864,-6.15156 -0.10504,-1.08489 -0.0641,-1.65364 0.11908,-1.65364 0.15356,0 0.35177,0.50601 0.44046,1.12447 0.0887,0.61847 0.12576,3.6248 0.0824,6.68073 z m -2.28974,2.91042 c -0.11854,1.65629 -0.22974,2.17987 -0.36525,1.71979 -0.10715,-0.3638 -0.19645,-3.37013 -0.19843,-6.68073 -0.002,-3.3106 0.0999,-6.01927 0.22635,-6.01927 0.12648,0 0.30376,0.44649 0.39396,0.99219 0.0902,0.5457 0.1527,2.48047 0.1389,4.29948 -0.0138,1.81901 -0.1018,4.37885 -0.19553,5.68854 z m 8.42854,18.91771 c 0.14552,0 0.26458,-0.35719 0.26458,-0.79375 0,-0.43656 -0.11906,-0.79375 -0.26458,-0.79375 -0.14552,0 -0.26459,0.35719 -0.26459,0.79375 0,0.43656 0.11907,0.79375 0.26459,0.79375 z m -3.03002,-3.54448 c 0.18022,-0.24647 0.40717,-0.9782 0.50432,-1.62605 0.0971,-0.64785 0.10164,-1.29927 0.01,-1.44759 -0.0917,-0.14833 -0.27309,-0.2039 -0.40317,-0.12351 -0.13008,0.0804 -0.35422,0.57249 -0.49809,1.09355 -0.14387,0.52106 -0.18939,1.30836 -0.10115,1.74956 0.14272,0.7136 0.19662,0.75269 0.48812,0.35404 z m -141.18255,-2.54094 c 0.13746,0 0.86828,-0.62508 1.62405,-1.38906 0.75576,-0.76398 2.16563,-2.34156 3.13305,-3.50573 0.96741,-1.16417 2.18301,-2.77217 2.70133,-3.57335 0.51833,-0.80117 1.13911,-1.83705 1.37952,-2.30196 0.24041,-0.46491 0.43712,-0.91073 0.43712,-0.99072 0,-0.08 -0.15947,-0.14543 -0.35437,-0.14543 -0.19491,0 -1.06029,0.68461 -1.92307,1.52136 -0.86279,0.83674 -1.96982,1.9976 -2.46007,2.57968 -0.49025,0.58209 -1.444,1.89177 -2.11946,2.91042 -0.67545,1.01865 -1.55208,2.46351 -1.94806,3.21081 -0.39599,0.74729 -0.71997,1.4319 -0.71997,1.52135 0,0.0894 0.11247,0.16263 0.24993,0.16263 z m -7.37879,-1.5875 c 0.15371,0 1.82949,-1.57758 3.72395,-3.50573 1.89447,-1.92815 3.9605,-4.18769 4.59119,-5.0212 0.63069,-0.8335 1.35444,-2.05942 1.60835,-2.72425 0.33778,-0.88447 0.38298,-1.28746 0.16846,-1.50198 -0.21452,-0.21451 -0.67352,-0.006 -1.71074,0.77709 -0.77965,0.58864 -2.19238,1.94649 -3.13939,3.01744 -0.94701,1.07095 -1.96656,2.30436 -2.26566,2.74092 -0.29911,0.43657 -1.15398,1.89536 -1.89973,3.24178 -0.74575,1.34641 -1.35591,2.5668 -1.35591,2.71198 0,0.14517 0.12577,0.26395 0.27948,0.26395 z m 82.46896,-0.80206 c 0.10914,-0.005 0.41236,-0.30223 0.67381,-0.66146 0.26146,-0.35923 0.3899,-0.65314 0.28542,-0.65314 -0.10448,0 -0.40769,0.19704 -0.67381,0.43788 -0.26612,0.24083 -0.48386,0.53849 -0.48386,0.66146 0,0.12296 0.0893,0.21983 0.19844,0.21526 z m -62.70625,-0.52926 c 0.10914,-0.005 0.56139,-0.39157 1.00499,-0.85989 0.44361,-0.46832 1.22447,-1.38728 1.73524,-2.04212 0.51077,-0.65485 1.21881,-1.66688 1.57343,-2.24896 0.35461,-0.58208 0.90319,-1.61406 1.21905,-2.29329 0.31586,-0.67922 0.50846,-1.30078 0.428,-1.38124 -0.0805,-0.0805 -0.4942,0.10144 -0.91942,0.40422 -0.42522,0.30278 -1.40916,1.4006 -2.18653,2.43958 -0.77737,1.03898 -1.78236,2.7092 -2.2333,3.7116 -0.45094,1.00239 -0.8199,1.92513 -0.8199,2.05052 0,0.12539 0.0893,0.2242 0.19844,0.21958 z m 58.02346,-1.09855 c 0.15298,-0.051 0.52186,-0.47763 0.81973,-0.94809 0.29787,-0.47045 0.41894,-0.85537 0.26904,-0.85537 -0.1499,0 -0.51878,0.3458 -0.81973,0.76845 -0.30095,0.42264 -0.54719,0.84928 -0.54719,0.94809 0,0.0988 0.12517,0.13792 0.27815,0.0869 z m 65.05765,-0.0736 c 0.11288,-0.0698 0.2751,-0.80374 0.36048,-1.63104 0.0854,-0.82731 0.0875,-1.84284 0.005,-2.25672 -0.0828,-0.41389 -0.24299,-0.75252 -0.35603,-0.75252 -0.11304,0 -0.28767,0.70773 -0.38806,1.57274 -0.1004,0.865 -0.1024,1.93761 -0.004,2.38356 0.098,0.44595 0.27045,0.75374 0.38332,0.68398 z m -70.42903,-0.8278 c 0.54571,-0.41153 1.13723,-0.93168 1.31451,-1.15588 0.17727,-0.2242 0.3261,-0.49694 0.33073,-0.60608 0.005,-0.10914 -0.15633,-0.19843 -0.35768,-0.19843 -0.20135,0 -0.79666,0.47659 -1.32291,1.05909 -0.52626,0.5825 -0.95683,1.19195 -0.95683,1.35432 0,0.16237 0.44648,-0.0415 0.99218,-0.45302 z m -5.24917,-2.22498 c 0.13251,0 0.8564,-0.62508 1.60864,-1.38906 0.75225,-0.76398 1.48146,-1.59742 1.62047,-1.85208 0.17459,-0.31985 0.15806,-0.46302 -0.0535,-0.46302 -0.16841,0 -1.00604,0.71966 -1.86139,1.59926 -0.85536,0.87959 -1.55519,1.71303 -1.55519,1.85208 0,0.13905 0.10841,0.25282 0.24092,0.25282 z m 116.86476,-1.65915 c 0.0879,-0.0879 0.0973,-0.31613 0.0209,-0.50712 -0.0845,-0.21107 -0.14715,-0.14838 -0.15985,0.15985 -0.0115,0.27891 0.0511,0.43518 0.13897,0.34727 z m -150.53639,-1.17311 c 0.4691,-0.55231 1.34605,-1.86004 1.94876,-2.90606 0.60271,-1.04603 1.16004,-2.14736 1.2385,-2.4474 0.0785,-0.30004 0.0208,-0.54553 -0.12815,-0.54553 -0.14894,0 -0.73643,0.56555 -1.30553,1.25677 -0.5691,0.69123 -1.29395,1.68656 -1.61078,2.21185 -0.31683,0.52529 -0.74618,1.43726 -0.95411,2.0266 -0.20793,0.58934 -0.30235,1.14722 -0.20984,1.23974 0.0925,0.0925 0.55204,-0.28367 1.02115,-0.83597 z m 9.14348,0.12418 c 0.18816,-0.0627 1.33684,-1.29476 2.55264,-2.73787 1.21579,-1.44311 2.61485,-3.23148 3.10902,-3.97414 0.49416,-0.74267 0.89848,-1.60587 0.89848,-1.91823 0,-0.3672 -0.16572,-0.56793 -0.46889,-0.56793 -0.25788,0 -0.9053,0.35974 -1.43871,0.79942 -0.5334,0.43968 -1.52618,1.59528 -2.20616,2.568 -0.67999,0.97273 -1.50987,2.36916 -1.84418,3.10319 -0.33432,0.73403 -0.68355,1.67367 -0.77608,2.0881 -0.12315,0.55159 -0.0766,0.72294 0.17388,0.63946 z m 20.89701,-1.302 c 0.75475,-0.63192 2.18764,-2.10153 3.18418,-3.26579 0.99654,-1.16426 2.36408,-2.91981 3.03898,-3.90123 0.6749,-0.98141 1.14232,-1.86916 1.03871,-1.97277 -0.10361,-0.10361 -0.63017,0.0436 -1.17013,0.32716 -0.53995,0.28356 -1.71045,1.2422 -2.60109,2.13032 -0.89065,0.88812 -2.0698,2.31778 -2.62034,3.17702 -0.55055,0.85924 -1.28036,2.06141 -1.6218,2.6715 -0.34144,0.61009 -0.6208,1.30578 -0.6208,1.54599 0,0.31439 0.38445,0.11487 1.37229,-0.7122 z m 120.87896,-0.35554 c 0.14703,-0.43657 0.55154,-2.34157 0.8989,-4.23334 0.34736,-1.89177 0.82515,-4.33255 1.06174,-5.42395 0.23659,-1.09141 0.6081,-3.05594 0.82556,-4.36563 0.21746,-1.30969 0.74799,-4.16719 1.17895,-6.35 0.43096,-2.18281 0.9182,-4.50453 1.08276,-5.15937 0.16455,-0.65485 0.56488,-2.6457 0.88962,-4.42411 0.32474,-1.77842 0.54404,-3.27988 0.48733,-3.33659 -0.0567,-0.0567 -0.58081,-0.0157 -1.16468,0.091 -0.58386,0.10677 -1.10703,0.23959 -1.1626,0.29515 -0.0556,0.0556 -0.16827,0.67276 -0.25045,1.37154 -0.0822,0.69878 -0.3312,3.01992 -0.55338,5.1581 -0.22218,2.13818 -0.64168,5.82714 -0.93223,8.19769 -0.29054,2.37055 -0.83409,6.12102 -1.20788,8.33438 -0.3738,2.21335 -0.78735,5.03631 -0.91901,6.27323 -0.13167,1.23693 -0.29847,2.72521 -0.37067,3.30729 -0.12313,0.99264 -0.11469,1.00906 0.13604,0.26459 z m -130.49225,-1.71979 c 0.12411,0 0.90547,-0.80368 1.73636,-1.78594 0.83089,-0.98227 1.92868,-2.52734 2.43954,-3.43351 0.51086,-0.90616 0.85439,-1.76804 0.76338,-1.91528 -0.10389,-0.16811 -0.43105,-0.0998 -0.87927,0.18366 -0.39259,0.24826 -0.95193,0.69778 -1.24297,0.99892 -0.29104,0.30115 -0.76599,0.90038 -1.05544,1.33162 -0.28946,0.43123 -0.85167,1.49844 -1.24937,2.37157 -0.39769,0.87312 -0.72641,1.73633 -0.73049,1.91823 -0.004,0.1819 0.0941,0.33073 0.21826,0.33073 z m 52.19264,-9.08257 c 0.49238,-0.21336 2.20492,-1.00867 3.80565,-1.76734 1.60073,-0.75867 3.98198,-1.88482 5.29167,-2.50254 1.30969,-0.61772 3.21469,-1.52458 4.23333,-2.01524 1.01865,-0.49066 3.87615,-1.97535 6.35,-3.2993 2.47386,-1.32396 5.50995,-3.04155 6.74688,-3.81687 1.23692,-0.77533 3.32052,-2.12283 4.63021,-2.99445 1.30968,-0.87162 3.70276,-2.57574 5.31794,-3.78694 1.61518,-1.21119 3.10135,-2.40056 3.30258,-2.64303 0.32335,-0.38961 0.23313,-0.55521 -0.77599,-1.42432 -0.62803,-0.5409 -1.91407,-1.36776 -2.85787,-1.83747 -0.94379,-0.46972 -2.51142,-0.97814 -3.48362,-1.12983 -0.97219,-0.15169 -2.89872,-0.21881 -4.28117,-0.14915 -1.79004,0.0902 -3.1228,0.33563 -4.63021,0.8527 -1.16416,0.39934 -3.06916,1.27017 -4.23333,1.93519 -1.16417,0.66502 -2.89057,1.82791 -3.83646,2.58419 -0.94588,0.75629 -2.37463,2.02632 -3.175,2.82229 -0.80036,0.79598 -2.0045,2.15086 -2.67586,3.01085 -0.67136,0.85999 -2.08562,2.93284 -3.14279,4.60633 -1.05717,1.67349 -2.30295,3.63802 -2.76841,4.36562 -0.46546,0.72761 -1.63858,2.52774 -2.60694,4.00031 -0.96835,1.47256 -1.83831,2.87979 -1.93324,3.12717 -0.15899,0.41431 -0.102,0.41918 0.72263,0.0618 z m 92.63951,-24.09265 c 0.76398,-0.0938 2.87734,-0.41599 4.69635,-0.71606 1.81901,-0.30008 4.73604,-0.79951 6.48229,-1.10985 1.74625,-0.31034 2.87735,-0.61128 2.51355,-0.66874 -0.36381,-0.0575 -1.67349,0.0216 -2.91042,0.17563 -1.23693,0.15407 -4.21349,0.47424 -6.61459,0.7115 -2.40109,0.23726 -4.63351,0.48318 -4.96093,0.54648 -0.39289,0.0759 -0.59532,0.3049 -0.59532,0.6733 0,0.51866 0.0984,0.54613 1.38907,0.38774 z m -30.85771,-3.0727 c 0.2196,0 0.62956,-0.12325 0.91104,-0.27389 0.28147,-0.15064 0.51177,-0.44002 0.51177,-0.64306 0,-0.20304 -0.26629,-0.40721 -0.59175,-0.45371 -0.45783,-0.0654 -0.62853,-0.31213 -0.75428,-1.09019 -0.0894,-0.5531 -0.28899,-1.13209 -0.44353,-1.28663 -0.15455,-0.15455 -0.41043,-0.201 -0.56864,-0.10323 -0.1582,0.0978 -0.28763,0.73957 -0.28763,1.4262 0,0.70171 0.18037,1.50595 0.41187,1.83647 0.22654,0.32342 0.59155,0.58804 0.81115,0.58804 z m 1.37228,-1.59155 c 0.10055,-0.002 0.3221,-0.0926 0.49232,-0.20093 0.17023,-0.10829 0.54011,-0.79108 0.82197,-1.51731 0.28186,-0.72623 0.58827,-1.63563 0.68092,-2.02089 0.11465,-0.47675 0.0177,-0.88668 -0.30361,-1.28345 -0.44711,-0.55215 -0.52158,-0.56228 -1.40901,-0.19148 -0.51533,0.21532 -1.19333,0.71741 -1.50667,1.11576 -0.56494,0.7182 -0.56546,0.73024 -0.062,1.43726 0.27923,0.39214 0.59161,1.06292 0.69416,1.4906 0.10256,0.42769 0.23656,0.86691 0.29779,0.97605 0.0612,0.10914 0.1936,0.19662 0.29415,0.19439 z m 3.16006,-0.26053 c 0.29141,0 0.65016,-0.14883 0.7972,-0.33073 0.14705,-0.1819 0.48659,-0.95401 0.75454,-1.7158 0.44819,-1.2742 0.45303,-1.41924 0.0605,-1.81177 -0.32834,-0.32834 -0.54744,-0.36207 -0.95054,-0.14634 -0.32498,0.17392 -0.58003,0.66084 -0.67184,1.2826 -0.0814,0.55123 -0.23163,1.3892 -0.33385,1.86214 -0.16117,0.74574 -0.1155,0.8599 0.344,0.8599 z m -18.69368,-1.21579 c 0.41908,-0.40151 0.71387,-0.7781 0.65509,-0.83688 -0.0588,-0.0588 -0.38496,0.0397 -0.72484,0.21876 -0.33989,0.17909 -0.69942,0.45094 -0.79895,0.60411 -0.0995,0.15317 -0.11625,0.38323 -0.0371,0.51125 0.0791,0.12803 0.48675,-0.0957 0.90583,-0.49724 z m 6.95212,-1.85768 c 0.41837,-0.0558 1.69829,-0.10153 2.84427,-0.10153 1.14598,0 2.08359,-0.0999 2.08359,-0.22212 0,-0.12216 -0.3065,-0.36176 -0.68111,-0.53245 -0.37462,-0.17068 -1.2106,-0.429 -1.85774,-0.57402 -0.8313,-0.1863 -1.54379,-0.1722 -2.42773,0.0481 -0.68812,0.17146 -1.66784,0.49599 -2.17717,0.72119 l -0.92604,0.40944 1.19063,0.17649 c 0.65484,0.0971 1.53293,0.13079 1.9513,0.0749 z M 221.04624,241.25317 c -1.16836,0.11907 -1.56233,0.0579 -1.91823,-0.29805 -0.24635,-0.24634 -0.4479,-0.59417 -0.4479,-0.77295 0,-0.17879 0.12938,-0.45444 0.28751,-0.61257 0.20695,-0.20695 0.67027,-0.18559 1.65364,0.0762 0.75138,0.20005 1.81645,0.36515 2.36683,0.36688 0.55038,0.002 1.43186,-0.17702 1.95885,-0.39721 0.527,-0.22019 1.01285,-0.34567 1.07968,-0.27884 0.0668,0.0668 -0.27887,0.36705 -0.76823,0.66716 -0.48935,0.30011 -1.30645,0.67027 -1.81578,0.82258 -0.50932,0.15231 -1.58769,0.34435 -2.39637,0.42676 z m 18.3105,-49.17464 c -0.43396,0.0646 -0.57772,-0.0605 -0.60819,-0.52917 -0.0219,-0.33754 -0.0122,-0.9709 0.0217,-1.40746 0.0339,-0.43656 0.49832,-1.58287 1.03209,-2.54735 0.53376,-0.96448 1.62532,-2.50867 2.42568,-3.43153 0.80037,-0.92287 2.16958,-2.37447 3.04271,-3.22578 0.87312,-0.85132 2.5431,-2.19439 3.71106,-2.98461 1.16796,-0.79023 2.26928,-1.43677 2.44739,-1.43677 0.17811,0 0.32384,0.14108 0.32384,0.31351 0,0.17244 -0.98226,1.3356 -2.18281,2.58483 -1.20055,1.24922 -2.89719,3.09427 -3.77031,4.10011 -0.87313,1.00584 -1.79586,2.04533 -2.05053,2.30997 -0.25466,0.26464 -0.46302,0.53655 -0.46302,0.60424 0,0.0677 -0.62507,1.11479 -1.38906,2.32688 -0.76398,1.21209 -1.52028,2.43663 -1.68067,2.72119 -0.16038,0.28457 -0.54733,0.55544 -0.85989,0.60194 z m -3.05272,-0.21684 c -0.21712,0 -0.45169,-0.0921 -0.52127,-0.20469 -0.0696,-0.11258 -0.0942,-0.80345 -0.0548,-1.53525 0.052,-0.96547 0.37976,-1.90754 1.19445,-3.43333 0.61752,-1.15652 1.29002,-2.29074 1.49442,-2.52048 0.20441,-0.22974 0.37166,-0.49763 0.37166,-0.59531 0,-0.0977 -0.1786,-0.17761 -0.39688,-0.17761 -0.26242,0 -0.39687,-0.26247 -0.39687,-0.77478 0,-0.42613 0.44211,-1.52746 0.98247,-2.4474 0.54037,-0.91993 1.74151,-2.42607 2.66922,-3.34697 0.9277,-0.9209 1.75754,-1.60356 1.84407,-1.51702 0.0865,0.0865 -0.0973,0.48281 -0.40848,0.88061 -0.3112,0.3978 -1.19922,1.67577 -1.97338,2.83994 -0.77415,1.16417 -1.61289,2.49222 -1.86385,2.95124 -0.25097,0.45901 -0.4563,0.9055 -0.4563,0.99219 0,0.0867 0.0893,0.1568 0.19843,0.1558 0.10915,-10e-4 0.48628,-0.42442 0.83808,-0.94095 0.3518,-0.51653 0.96945,-1.3169 1.37255,-1.77859 0.40311,-0.4617 0.8199,-0.75246 0.92621,-0.64615 0.10632,0.10632 0.0245,0.51931 -0.18192,0.91778 -0.20638,0.39846 -0.82164,1.49759 -1.36724,2.4425 -0.54561,0.94492 -1.12338,2.13677 -1.28392,2.64856 -0.16055,0.5118 -0.62744,1.64491 -1.03755,2.51804 -0.4101,0.87312 -0.92759,2.03398 -1.14997,2.57968 -0.22239,0.54571 -0.58198,0.99219 -0.7991,0.99219 z m 7.02141,-2.2731 c -0.1469,0.0908 -0.34664,0.0363 -0.44388,-0.121 -0.0972,-0.15734 -0.10072,-0.69162 -0.008,-1.18729 0.093,-0.49568 0.55557,-1.29162 1.02795,-1.76877 0.47238,-0.47715 1.24135,-1.1652 1.70881,-1.52901 0.46746,-0.3638 1.23522,-0.86981 1.70612,-1.12447 0.47091,-0.25467 1.06642,-0.46303 1.32335,-0.46303 0.25693,0 0.46715,0.10165 0.46715,0.22588 0,0.12423 -0.74493,0.92791 -1.65539,1.78594 -0.91046,0.85803 -2.15126,2.1128 -2.75734,2.78837 -0.60607,0.67557 -1.22214,1.30259 -1.36904,1.39338 z m 4.03552,-2.4894 c -0.0582,0 -0.10584,-0.17253 -0.10584,-0.38341 0,-0.21087 0.41996,-0.70373 0.93325,-1.09523 0.51328,-0.3915 0.9935,-0.65156 1.06715,-0.57791 0.0737,0.0737 -0.29868,0.56651 -0.82741,1.09523 -0.52873,0.52873 -1.00894,0.96132 -1.06715,0.96132 z m 40.7641,-3.70417 c -0.32366,0 -0.72284,-0.16189 -0.88706,-0.35976 -0.23924,-0.28828 0.0368,-0.52487 1.38914,-1.19063 0.92824,-0.45697 1.7624,-0.83086 1.85368,-0.83086 0.0913,0 0.16597,0.11334 0.16597,0.25185 0,0.13852 -0.43498,0.6743 -0.96663,1.19063 -0.53164,0.51633 -1.23144,0.93877 -1.5551,0.93877 z m -45.27115,-1.85208 c -0.0532,0 -0.0967,-0.1679 -0.0967,-0.37311 0,-0.20522 0.47531,-0.97443 1.05624,-1.70937 0.58094,-0.73493 1.28748,-1.46 1.57011,-1.61126 0.28262,-0.15125 0.58946,-0.27501 0.68187,-0.27501 0.0924,0 -0.57062,0.89297 -1.47341,1.98438 -0.90278,1.0914 -1.68493,1.98437 -1.73811,1.98437 z m 51.05438,-0.28547 c -0.41138,-0.0115 -0.89679,-0.0809 -1.07869,-0.15434 -0.1819,-0.0734 -0.33073,-0.23336 -0.33073,-0.35547 0,-0.12211 0.44649,-0.36338 0.99219,-0.53617 0.5457,-0.17279 1.37914,-0.53519 1.85208,-0.80535 0.73925,-0.42227 0.8599,-0.4339 0.8599,-0.0829 0,0.22457 -0.34803,0.75633 -0.7734,1.1817 -0.50952,0.50953 -1.02859,0.76627 -1.52135,0.75251 z m 5.17474,-1.21741 c -0.27537,0.072 -0.7603,-0.0793 -1.07763,-0.33626 -0.5752,-0.46577 -0.57258,-0.46862 0.86086,-0.93653 0.79081,-0.25814 1.58953,-0.58962 1.77495,-0.73662 0.18541,-0.14701 0.4154,-0.189 0.51108,-0.0933 0.0957,0.0957 -0.21812,0.57847 -0.69732,1.07288 -0.47919,0.49441 -1.09657,0.95784 -1.37194,1.02985 z m -6.29312,-1.68889 c -0.23283,-0.009 -0.70119,-0.12814 -1.0408,-0.26425 -0.33961,-0.13612 -0.56868,-0.39385 -0.50905,-0.57273 0.0596,-0.17889 0.5856,-0.46341 1.16883,-0.63227 0.58323,-0.16886 1.43147,-0.4989 1.88498,-0.73341 0.45351,-0.23452 0.89,-0.4264 0.96999,-0.4264 0.08,0 0.14543,0.23738 0.14543,0.52751 0,0.31443 -0.44351,0.84878 -1.09803,1.32291 -0.60392,0.43748 -1.28853,0.78787 -1.52135,0.77864 z m 11.32513,-1.3102 c -0.34978,-0.002 -0.80004,-0.10797 -1.00059,-0.235 -0.20054,-0.12702 -0.28305,-0.36293 -0.18335,-0.52424 0.0997,-0.16132 0.76604,-0.54487 1.48077,-0.85234 0.71473,-0.30746 1.4369,-0.72457 1.60482,-0.9269 0.16792,-0.20234 0.4098,-0.36788 0.5375,-0.36788 0.1277,0 0.23218,0.15878 0.23218,0.35285 0,0.19407 -0.45796,0.84891 -1.01769,1.45521 -0.65638,0.71099 -1.24347,1.10092 -1.65364,1.0983 z m -3.7565,-0.26053 c -0.19261,0 -0.58131,-0.17481 -0.86378,-0.38846 -0.41737,-0.31568 -0.43525,-0.39004 -0.0954,-0.39687 0.23,-0.005 0.99806,-0.30199 1.70681,-0.66081 0.70875,-0.35881 1.3536,-0.58742 1.43301,-0.50801 0.0794,0.0794 -0.29996,0.55157 -0.84303,1.04926 -0.54308,0.49769 -1.145,0.90489 -1.3376,0.90489 z m -51.06693,-0.85789 c -0.39246,0.39247 -0.71357,0.57209 -0.71357,0.39917 0,-0.17293 0.25923,-0.55592 0.57606,-0.85109 0.31683,-0.29518 0.63794,-0.4748 0.71357,-0.39917 0.0756,0.0756 -0.18359,0.45862 -0.57606,0.85109 z m 49.04478,-0.72961 c -0.39723,0 -0.80058,-0.0783 -0.89633,-0.17409 -0.0958,-0.0958 -0.0415,-0.33388 0.12059,-0.52917 0.16208,-0.19529 0.44208,-0.35507 0.62224,-0.35507 0.18016,0 0.76618,-0.29766 1.30227,-0.66146 0.53609,-0.3638 1.02896,-0.66146 1.09526,-0.66146 0.0663,0 0.12054,0.11492 0.12054,0.25538 0,0.14046 -0.36952,0.67624 -0.82116,1.19062 -0.56338,0.64166 -1.04789,0.93525 -1.54341,0.93525 z m 7.54287,-1.85208 c -0.19305,0 -0.51442,-0.19796 -0.71414,-0.4399 -0.30891,-0.37423 -0.30622,-0.45903 0.018,-0.56802 0.20963,-0.0705 0.72556,-0.49758 1.14652,-0.94916 0.42097,-0.45157 0.88137,-1.11467 1.02313,-1.47354 0.19592,-0.49601 0.31107,-0.5662 0.48011,-0.29269 0.12456,0.20154 0.1018,0.72129 -0.0517,1.18166 -0.15076,0.45202 -0.56138,1.20881 -0.91249,1.68175 -0.35111,0.47295 -0.79634,0.8599 -0.9894,0.8599 z m -62.39445,-0.273 c -0.10914,0.005 -0.19844,-0.082 -0.19844,-0.19252 0,-0.11052 0.24972,-0.35689 0.55494,-0.5475 0.30521,-0.19061 0.62394,-0.27755 0.70829,-0.19321 0.0843,0.0844 -0.0761,0.32694 -0.3565,0.53909 -0.28042,0.21215 -0.59915,0.38951 -0.70829,0.39414 z m 55.46247,-1.04992 c -0.32799,0 -0.66679,-0.11399 -0.7529,-0.25331 -0.0861,-0.13933 0.23429,-0.45091 0.71199,-0.69241 0.4777,-0.2415 1.13644,-0.68405 1.46386,-0.98343 0.56376,-0.51549 0.59531,-0.51812 0.59531,-0.0497 0,0.27206 -0.31993,0.8286 -0.71096,1.23674 -0.39103,0.40815 -0.97931,0.74208 -1.3073,0.74208 z m -56.49566,-0.79375 c -0.12297,0 -0.22358,-0.0762 -0.22358,-0.16927 0,-0.0931 0.20836,-0.32743 0.46302,-0.52075 0.25466,-0.19332 0.57077,-0.35527 0.70247,-0.3599 0.13169,-0.005 0.0239,0.22971 -0.23945,0.52076 -0.26339,0.29104 -0.5795,0.52916 -0.70246,0.52916 z m 61.71227,-0.27708 c -0.27457,0.14695 -0.59724,0.14011 -0.83135,-0.0176 -0.31589,-0.21281 -0.26725,-0.33651 0.27883,-0.70914 0.36381,-0.24825 0.93476,-0.71925 1.2688,-1.04668 0.33404,-0.32742 0.72099,-0.59531 0.8599,-0.59531 0.1389,0 0.25255,0.10993 0.25255,0.24428 0,0.13436 -0.31049,0.61329 -0.68999,1.0643 -0.3795,0.45101 -0.89193,0.92809 -1.13874,1.06017 z m 6.05176,-1.83958 c -0.28537,0 -0.51886,-0.0972 -0.51886,-0.2159 0,-0.11875 0.38695,-0.57046 0.8599,-1.0038 0.47294,-0.43334 0.99476,-1.0208 1.15959,-1.30545 0.16483,-0.28466 0.38922,-0.43208 0.49864,-0.32761 0.10941,0.10448 0.0546,0.53845 -0.12185,0.96439 -0.17644,0.42595 -0.55429,1.02508 -0.83967,1.33141 -0.28539,0.30632 -0.75238,0.55696 -1.03775,0.55696 z m 2.93812,-4.49792 c -0.15509,0 -0.27807,-0.14883 -0.2733,-0.33073 0.005,-0.1819 0.53264,-0.77864 1.17305,-1.32609 0.67188,-0.57435 1.23483,-0.88134 1.33097,-0.7258 0.0916,0.14826 -0.0873,0.62618 -0.3977,1.06205 -0.31037,0.43586 -0.78632,0.9113 -1.05767,1.05652 -0.27136,0.14523 -0.62026,0.26405 -0.77535,0.26405 z m 44.7255,-44.45 c -0.27548,0 -0.56212,-0.15963 -0.63698,-0.35472 -0.0749,-0.1951 -0.0401,-0.51011 0.0773,-0.70002 0.11737,-0.1899 0.40401,-0.27214 0.63698,-0.18274 0.23296,0.0894 0.42357,0.4044 0.42357,0.70001 0,0.35096 -0.17381,0.53747 -0.50085,0.53747 z"
       id="path1801" />
  </g>
</svg>
